<svg width="877" height="721" viewBox="0 0 877 721" fill="none" xmlns="http://www.w3.org/2000/svg"><g id="design-freepik"><path d="M536.291,202.572c0.002,0.02 0.003,0.04 0.005,0.06c-0.695,0 -0.578,-0.019 -0.005,-0.06c-1.08,-12.971 1.511,-27.576 8.038,-38.609c3.464,-5.858 6.647,-11.814 11.132,-17.03c4.968,-5.778 10.747,-10.045 16.988,-14.345c4.992,-3.439 10.513,-5.375 15.928,-8.054c5.009,-2.479 10.489,-3.959 15.899,-5.356c3.272,-0.844 6.26,-2.749 9.535,-3.62c1.467,-0.39 3.43,-0.298 4.918,-0.298c1.49,0 2.208,-0.422 2.122,1.261c-0.117,2.298 -0.84,4.682 -1.419,6.888c-1.421,5.416 -3.003,10.749 -4.161,16.229c-0.719,3.405 -1.165,6.814 -2.425,10.088c-1.377,3.58 -2.977,7.168 -4.574,10.657c-1.59,3.475 -4.358,6.93 -6.779,9.898c-2.987,3.662 -6.211,6.927 -9.617,10.183c-1.27,1.214 -2.281,2.698 -3.665,3.796c-1.516,1.203 -3.34,2.028 -4.918,3.159c-3.114,2.231 -5.86,4.192 -9.411,5.695c-2.786,1.179 -5.39,2.7 -8.239,3.742c-2.909,1.065 -5.752,1.758 -8.763,2.468c-4.438,1.045 -9.004,1.566 -13.475,2.562c-1.646,0.367 -5.723,0.589 -7.114,0.686z" fill="#e1e445" stroke="none" stroke-linecap="butt"/><path d="M536.296,202.632c-1.093,-12.986 1.496,-27.619 8.033,-38.669c3.464,-5.858 6.647,-11.814 11.132,-17.03c4.968,-5.778 10.747,-10.045 16.988,-14.345c4.992,-3.439 10.513,-5.375 15.928,-8.054c5.009,-2.479 10.489,-3.959 15.899,-5.356c3.272,-0.844 6.26,-2.749 9.535,-3.62c1.467,-0.39 3.43,-0.298 4.918,-0.298c1.49,0 2.208,-0.422 2.122,1.261c-0.117,2.298 -0.84,4.682 -1.419,6.888c-1.421,5.416 -3.003,10.749 -4.161,16.229c-0.719,3.405 -1.165,6.814 -2.425,10.088c-1.377,3.58 -2.977,7.168 -4.574,10.657c-1.59,3.475 -4.358,6.93 -6.779,9.898c-2.987,3.662 -6.211,6.927 -9.617,10.183c-1.27,1.214 -2.281,2.698 -3.665,3.796c-1.516,1.203 -3.34,2.028 -4.918,3.159c-3.114,2.231 -5.86,4.192 -9.411,5.695c-2.786,1.179 -5.39,2.7 -8.239,3.742c-2.909,1.065 -5.752,1.758 -8.763,2.468c-4.438,1.045 -9.004,1.566 -13.475,2.562c-2.324,0.518 -9.492,0.746 -7.109,0.746z" fill="none" stroke="#444444" stroke-linecap="round"/><path d="M662.065,105.949c4.899,-5.625 13.092,-12.7859 19.321,-16.9131c0,2.407 2.402,4.0129 3.238,6.0708c2.341,5.7573 3.948,12.0473 5.88,17.9633c2.593,7.939 3.251,15.806 4.07,24.051c0.86,8.653 1.288,17.219 0.018,25.85c-1.118,7.601 -3.227,14.4 -6.91,21.186c-4.724,8.701 -8.535,18.075 -14.002,26.366c-4.989,7.564 -10.559,14.743 -15.721,22.182c-0.861,1.24 -4.198,7.72 -6.368,7.246c-1.268,-0.277 -2.152,-5.033 -2.443,-6.071c-0.5,-1.789 -1.83,-3.281 -2.785,-4.86c-1.676,-2.77 -3.244,-5.947 -4.306,-8.991c-5.554,-15.922 -10.025,-32.299 -8.539,-49.242c0.751,-8.56 3.974,-16.358 5.789,-24.675c1.502,-6.881 3.471,-13.93 7.454,-19.868c2.369,-3.533 4.138,-7.352 6.856,-10.664c2.71,-3.302 5.644,-6.412 8.448,-9.631z" fill="#ed9716" stroke="#444444" stroke-linecap="round"/><path d="M758.121,182.823c7.739,-2.285 18.182,-4.602 26.223,-5.005c0,0 -3.892,7.979 -3.984,8.846c-0.58,5.465 0.03,9.829 -1.233,15.198c-1.091,4.635 -2.164,9.287 -3.392,13.888c-1.836,6.884 -5.131,13.674 -8.456,19.981c-5.285,10.025 -12.094,20.035 -20.158,28.159c-7.418,7.472 -15.896,13.811 -24.799,19.48c-4.254,2.709 -8.965,5.105 -13.519,7.284c-4.612,2.206 -9.364,4.552 -14.235,6.128c-4.424,1.432 -8.675,3.439 -13.204,4.542c-2.978,0.725 -6.028,0.9 -9.013,1.526c-2.513,0.527 -5.129,1.076 -7.536,1.979c-4.395,1.649 -7.979,3.538 -12.651,4.244c-0.467,-1.378 -1.165,-2.012 -0.795,-3.362c1.668,-6.083 2.27,-12.296 4.24,-18.335c1.955,-5.993 3.45,-11.943 5.985,-17.763c1.427,-3.279 2.415,-6.721 3.852,-9.991c0.901,-2.05 2.122,-3.947 3.053,-5.984c4.358,-9.541 9.807,-18.455 16.233,-26.8c5.532,-7.184 11.374,-13.768 18.802,-19.123c1.782,-1.285 3.365,-2.819 5.257,-3.958c1.493,-0.898 3.112,-1.604 4.652,-2.42c3.917,-2.075 7.926,-4.062 11.763,-6.271c2.639,-1.518 5.32,-2.61 8.165,-3.707c2.562,-0.988 4.971,-2.292 7.523,-3.291c5.548,-2.169 11.508,-3.556 17.227,-5.245z" fill="#d04691" stroke="#444444" stroke-linecap="round"/><path d="M739.858,288.574c-3.997,2.255 -7.299,6.766 -10.588,9.943c5.727,1.127 11.128,4.141 16.694,5.865c8.02,2.485 15.847,5.841 23.623,8.989c7.383,2.989 14.769,5.857 22.291,8.488c3.462,1.212 6.941,1.569 10.563,1.991c4.678,0.546 9.336,0.966 14.053,0.966c9.649,0 19.564,-1.041 28.433,-4.972c7.433,-3.294 13.985,-7.715 20.582,-12.386c2.57,-1.82 5.319,-3.391 7.995,-5.055c0.275,-0.17 2.496,-1.019 2.496,-1.43c0,-0.613 -1.573,-1.919 -1.975,-2.373c-2.369,-2.681 -5.549,-4.827 -8.177,-7.26c-4.343,-4.022 -9.581,-6.903 -14.343,-10.396c-12.506,-9.172 -27.89,-14.206 -43.503,-14.389c-8.872,-0.104 -17.261,0.757 -25.864,2.944c-3.685,0.937 -7.395,1.755 -10.988,3.005c-3.667,1.275 -7.216,2.996 -10.746,4.601c-7.173,3.262 -13.712,7.614 -20.546,11.469z" fill="#e50707" stroke="#444444" stroke-linecap="round"/><path d="M509.928,269.042c14.745,-14.834 33.539,-30.399 54.327,-36.157c0,3.276 2.264,7.104 3.355,10.157c2.902,8.111 4.795,16.259 5.629,24.83c0.995,10.229 1.128,20.011 -0.574,30.179c-1.658,9.904 -6.351,19.102 -9.854,28.467c-2.17,5.798 -5.803,10.319 -9.218,15.424c-3.358,5.021 -6.827,9.874 -10.789,14.463c-9.453,10.952 -20.059,22.348 -31.623,31.183c-4.019,3.07 -8.45,5.546 -12.425,8.695c-1.714,1.358 -3.684,1.81 -5.522,2.884c-0.954,0.557 -2.378,1.463 -2.378,-0.188c0,-8.805 -3.079,-16.934 -4.121,-25.603c-0.936,-7.789 -4.111,-15.163 -4.587,-23.074c-0.628,-10.44 -0.777,-20.979 0.127,-31.413c1.64,-18.92 14.624,-36.741 27.653,-49.847z" fill="#e50707" stroke="#444444" stroke-linecap="round"/><path d="M730.841,346.516c19.7,7.4 41.696,18.162 55.345,34.63c-3.054,1.306 -5.72,4.874 -8.13,7.076c-6.404,5.85 -13.244,10.805 -20.9,14.973c-9.137,4.973 -18.202,8.991 -28.357,11.506c-9.891,2.45 -20.333,1.878 -30.458,2.447c-6.268,0.352 -11.93,-1.126 -18.048,-2.174c-6.018,-1.031 -11.923,-2.229 -17.779,-3.976c-13.974,-4.17 -28.821,-9.202 -41.663,-16.12c-4.462,-2.404 -8.536,-5.417 -13.053,-7.75c-1.95,-1.007 -3.155,-2.604 -4.889,-3.835c-0.9,-0.64 -2.311,-1.564 -0.772,-2.222c8.206,-3.508 14.556,-9.526 22.221,-13.92c6.887,-3.948 12.494,-9.753 19.678,-13.334c9.48,-4.726 19.244,-9.059 29.329,-12.4c18.287,-6.058 40.07,-1.439 57.476,5.099z" fill="#ed9716" stroke="#444444" stroke-linecap="round"/><path d="M653.616,460.683c6.464,1.207 12.645,1.943 19.2,2.425c-11.193,17.706 -28.416,37.062 -45.063,49.882c-9.459,7.285 -20.484,14.126 -31.817,18.204c-10.047,3.616 -21.286,5.254 -31.778,7.184c-11.104,2.041 -22.387,3.249 -33.657,3.896c-5.983,0.344 -12.677,0.484 -18.538,-0.944c-2.534,-0.618 -4.758,-1.475 -7.06,-2.559c-0.897,-0.422 -2.804,-1.927 -3.734,-1.927c-0.424,0 2.095,-3.049 2.378,-3.386c2.338,-2.782 4.36,-4.721 5.65,-8.193c1.096,-2.951 3.27,-5.493 5.139,-8.026c2.617,-3.545 5.126,-7.363 7.944,-10.742c2.709,-3.25 6.265,-5.962 8.601,-9.447c1.658,-2.475 3.497,-4.549 6.01,-6.187c2.433,-1.585 3.54,-3.473 5.225,-5.705c1.611,-2.135 4.199,-3.678 6.202,-5.414c2.183,-1.893 3.884,-4.254 6.137,-6.061c3.012,-2.415 7.029,-3.968 10.386,-5.977c6.537,-3.912 14.013,-6.014 21.535,-6.939c4.951,-0.609 9.762,-2.146 14.697,-2.926c5.223,-0.826 10.398,-1.129 15.695,-1.129c6.439,0 13.7,-0.856 19.985,0.606c5.652,1.315 11.145,2.298 16.863,3.365z" fill="#d04691" stroke="#444444" stroke-linecap="round"/><path d="M738.517,430.598c-3.327,2.063 -5.554,4.432 -7.601,7.729c0.057,0.6 -0.787,0.256 -0.058,0.65c1.458,0.787 2.34,1.923 3.753,2.79c4.585,2.811 9.493,5.192 14.329,7.584c5.98,2.958 11.831,6.114 17.803,9.096c6.05,3.022 12.022,5.994 18.487,8.051c3.605,1.146 7.122,2.372 10.897,2.869c3.827,0.505 7.685,0.491 11.539,0.477c6.744,-0.024 13.947,-0.562 20.361,-2.714c7.856,-2.637 15.097,-6.761 22.119,-11.045c5.579,-3.403 11.232,-6.684 16.898,-9.946c1.072,-0.617 2.167,-1.197 3.221,-1.844c0.069,-0.042 0.118,-0.107 0.127,-0.187c0.012,-0.106 -0.051,-0.212 -0.116,-0.29c-0.736,-0.885 -1.065,-2.005 -1.674,-3.004c-1.715,-2.813 -4.799,-5.191 -7.254,-7.387c-2.255,-2.018 -4.3,-4.052 -6.727,-5.885c-2.409,-1.82 -4.825,-3.631 -7.244,-5.439c-5.648,-4.224 -12.245,-6.938 -19.055,-8.765c-8.413,-2.258 -17.718,-3.142 -26.415,-2.394c-4.81,0.414 -9.497,1.394 -14.266,2.062c-4.419,0.62 -8.874,0.981 -13.234,1.958c-5.216,1.169 -10.276,2.945 -15.234,4.911c-3.734,1.481 -7.187,3.508 -10.823,5.191c-3.411,1.579 -6.644,3.556 -9.833,5.532z" fill="#e1e445" stroke="#444444" stroke-linecap="round"/><path d="M691.661,518.047c-8.021,-14.249 -9.879,-30.232 -10.64,-46.209c11.484,-2.153 23.303,-0.727 33.77,4.455c6.467,3.202 12.715,6.672 18.854,10.436c6.826,4.184 12.937,9.016 18.927,14.3c4.501,3.97 8.484,8.366 12.105,13.118c3.228,4.235 6.779,8.606 9.307,13.295c3.478,6.449 6.712,13.24 7.77,20.528c0.72,4.961 1.297,9.915 1.297,14.927c0,1.851 -0.216,3.698 -0.216,5.519c0,1.354 -1.274,1.063 -2.282,1.063c-1.573,0 -4.642,0.422 -5.932,-0.425c-1.989,0.391 -2.652,-1.676 -4.684,-1.702c-1.133,-0.014 -2.299,-0.201 -3.41,-0.402c-5.24,-0.944 -10.456,-2.29 -15.636,-3.498c-4.47,-1.042 -8.248,-2.444 -12.37,-4.349c-3.316,-1.532 -6.812,-2.742 -9.944,-4.633c-14.863,-8.974 -28.416,-21.324 -36.916,-36.423z" fill="#ed9716" stroke="#444444" stroke-linecap="round"/><path d="M778.217,502.636c-3.465,-6.371 -6.513,-13.197 -8.36,-20.198c6.136,-0.834 12.092,-1.172 18.28,-0.697c10.029,0.77 19.996,1.196 29.639,4.267c17.905,5.7 35.223,16.529 44.507,33.173c4.781,8.573 5.221,17.955 8.046,27.088c0.54,1.747 0.858,3.614 1.295,5.333c-5.803,-0.042 -11.585,-0.244 -17.388,-0.405c-4.546,-0.126 -9.036,-0.353 -13.547,-0.993c-5.72,-0.811 -11.354,-2.636 -16.813,-4.444c-3.862,-1.279 -7.13,-3.2 -10.604,-5.243h-0.001l-0.107,-0.063c-2.979,-1.751 -5.853,-3.416 -8.599,-5.531c-5.453,-4.201 -10.355,-8.812 -14.795,-14.04c-4.638,-5.461 -8.155,-11.999 -11.553,-18.247z" fill="#d04691" stroke="none" stroke-linecap="butt"/><path d="M769.811,482.262c1.842,7.062 4.912,13.95 8.406,20.374c3.398,6.248 6.915,12.786 11.553,18.247c4.44,5.228 9.342,9.839 14.795,14.04c2.746,2.115 5.62,3.78 8.599,5.531l0.108,0.063c3.474,2.043 6.742,3.964 10.604,5.243c5.459,1.808 11.093,3.633 16.813,4.444c4.511,0.64 9.001,0.867 13.547,0.993c6.524,0.181 13.022,0.413 19.551,0.413M769.595,482.474c6.228,-0.861 12.266,-1.214 18.542,-0.733c10.029,0.77 19.996,1.196 29.639,4.267c17.905,5.7 35.223,16.529 44.507,33.173c4.781,8.573 5.221,17.955 8.046,27.088c0.541,1.75 0.859,3.619 1.297,5.341" fill="none" stroke="#444444" stroke-linecap="round"/><path d="M630.576,539.124c-14.341,1.808 -28.958,9.138 -41.696,15.624c12.019,11.828 26.033,21.527 41.24,29.025c13.891,6.851 29.093,13.794 44.986,13.26c7.799,-0.262 14.676,-2.205 22.073,-4.443c5.713,-1.729 10.721,-4.405 16.165,-6.76c3.965,-1.715 7.638,-3.999 11.529,-5.886c1.647,-0.799 4.43,-1.013 6.244,-1.371c-1.559,-1.63 -3.234,-3.132 -4.828,-4.727c-1.554,-1.555 -2.792,-3.384 -4.431,-4.857c-3.685,-3.313 -7.612,-6.409 -11.517,-9.466c-5.777,-4.525 -12.176,-7.923 -18.686,-11.31c-6.242,-3.248 -12.879,-6.149 -19.671,-8.084c-6.527,-1.859 -13.911,-2.574 -20.68,-2.943c-6.857,-0.373 -13.952,1.084 -20.728,1.938z" fill="#e50707" stroke="#444444" stroke-linecap="round"/><path d="M508.124,592.112c-6.019,-9.037 -10.703,-18.645 -15.687,-28.266c12.123,-2.864 25.259,-4.03 37.667,-2.552c11.381,1.355 22.431,4.509 32.911,9.163c10.897,4.839 20.904,12.305 29.521,20.513c9.832,9.365 18.334,20.179 26.798,30.77c7.037,8.805 13.15,18.008 17.913,28.242c2.318,4.979 4.899,10.873 6.597,16.114c-0.062,0.218 -0.63,0.121 -0.787,0.121c-5.544,0 -10.95,1.893 -16.437,2.625c-18.388,2.455 -38.438,-3.964 -54.636,-11.836c-8.515,-4.138 -15.567,-10.455 -22.513,-16.795c-7.338,-6.697 -14.363,-13.692 -20.916,-21.169c-7.446,-8.497 -14.168,-17.526 -20.431,-26.93z" fill="#ed9716" stroke="none" stroke-linecap="butt"/><path d="M643.844,666.096c-0.062,0.218 -0.63,0.121 -0.787,0.121c-5.544,0 -10.95,1.893 -16.437,2.625c-18.388,2.455 -38.438,-3.964 -54.636,-11.836c-8.515,-4.138 -15.567,-10.455 -22.513,-16.795c-7.338,-6.697 -14.363,-13.692 -20.916,-21.169c-7.446,-8.497 -14.168,-17.526 -20.431,-26.93c-6.019,-9.037 -10.703,-18.645 -15.687,-28.266c12.123,-2.864 25.259,-4.03 37.667,-2.552c11.381,1.355 22.431,4.509 32.911,9.163c10.897,4.839 20.904,12.305 29.521,20.513c9.832,9.365 18.334,20.179 26.798,30.77c7.037,8.805 13.15,18.008 17.913,28.242c2.318,4.979 4.899,10.873 6.597,16.114zM643.844,666.096c0.056,-0.198 0.043,0.133 0,0z" fill="none" stroke="#444444" stroke-linecap="round"/><path d="M498.71,84.4374c8.211,-7.3905 19.095,-12.9381 28.762,-18.2722c1.083,4.2618 3.682,8.2239 4.895,12.5198c2.051,7.267 2.008,15.0332 2.953,22.472c1.067,8.401 0.728,17.808 -0.041,26.234c-0.865,9.489 -1.984,18.314 -5.4,27.309c-2.761,7.27 -5.682,15.089 -10.214,21.497c-6.005,8.49 -12.207,16.242 -19.276,23.905c-6.427,6.967 -13.225,13.585 -20.206,20.004c-3.327,3.059 -7.184,5.428 -10.74,8.2c-2.633,2.053 -4.828,4.21 -7.787,5.813c-0.626,0.339 -5.542,4.299 -5.542,2.05c0,-1.994 -1.778,-4.704 -2.468,-6.628c-0.793,-2.212 -0.831,-4.761 -1.335,-7.047c-0.745,-3.382 -1.874,-6.661 -2.589,-10.051c-1.951,-9.254 -2.284,-18.826 -1.759,-28.245c0.428,-7.671 1.162,-15.648 3.115,-23.109c1.212,-4.633 3.185,-8.995 4.47,-13.594c3.574,-12.796 10.039,-25.847 18.325,-36.426c7.526,-9.608 15.734,-18.4373 24.837,-26.6316z" fill="#d04691" stroke="#444444" stroke-linecap="round"/><path d="M383.83,85.5283c-6.017,-22.6663 1.306,-44.1335 11.65,-64.2682c0.482,2.8442 4.582,5.2522 6.567,7.1033c5.02,4.6804 10.278,9.0757 15.124,13.9396c4.738,4.7557 8.655,10.3607 11.994,16.1472c3.081,5.3394 6.035,11.3515 8.304,17.0729c4.573,11.5333 7.072,25.0389 5.481,37.3859c-0.946,7.349 -2.928,14.095 -5.065,21.15c-1.454,4.8 -2.867,10.064 -3.003,15.097c-0.088,3.245 -1.075,3.517 -3.275,2.029c-3.025,-2.047 -5.546,-5.344 -8.43,-7.691c-4.085,-3.324 -8.261,-7.199 -11.849,-11.02c-6.508,-6.929 -12.876,-13.896 -17.404,-22.271c-4.357,-8.061 -7.744,-15.8226 -10.094,-24.6747z" fill="#e50707" stroke="#444444" stroke-linecap="round"/><path d="M280.625,39.1062c-4.493,-12.2189 -3.372,-25.2845 -1.353,-37.99817c21.783,6.07763 44.575,14.49847 60.136,31.48477c10.359,11.3079 16.109,24.5702 22.561,38.1995c2.284,4.8244 3.873,9.9299 5.88,14.8682c1.656,4.0734 3.185,8.4079 3.773,12.7796c0.394,2.9239 0.443,6.0379 0.629,8.9889c0.135,2.126 -0.585,5.347 0.409,7.303c-1.309,0 -6.198,-2.527 -7.452,-2.847c-3.866,-0.987 -7.376,-2.583 -11.068,-4.054c-5.179,-2.063 -10.496,-3.636 -15.439,-6.25c-5.655,-2.9912 -11.142,-6.258 -16.241,-10.1034c-12.335,-9.3039 -23.827,-21.1801 -32.701,-33.7591c-3.946,-5.5938 -6.79,-12.2353 -9.134,-18.6123z" fill="#ed9716" stroke="#444444" stroke-linecap="round"/><path d="M267.945,167.18c-7.048,-10.319 -9.936,-20.674 -12.798,-32.954c7.747,-1.344 15.246,-2.16 23.064,-1.114c3.433,0.459 6.883,0.689 10.314,1.129c3.252,0.418 6.507,0.845 9.7,1.594c4.826,1.132 9.067,3.418 13.741,4.951c8.909,2.922 17.35,7.403 24.856,12.996c2.828,2.107 5.695,4.133 8.254,6.56c2.492,2.363 5.616,4.159 7.515,7.055c1.537,2.344 3.585,4.193 5.267,6.421c1.91,2.53 3.587,5.308 5.141,8.06c1.359,2.408 3.128,4.536 4.276,7.056c0.835,1.83 1.54,3.464 2.704,5.105c1.459,2.056 2.021,5.029 3.616,6.885l0.069,0.08c0.837,0.973 2.038,2.368 2.038,3.68c-5.938,0.834 -13.232,3.794 -19.244,3.28c-10.342,-0.885 -20.404,-1.858 -30.641,-3.729c-6.207,-1.134 -12.979,-1.918 -18.914,-4.1c-6.383,-2.347 -13.105,-6.17 -18.331,-10.443c-4.147,-3.391 -7.593,-7.381 -11.226,-11.279c-3.309,-3.551 -6.666,-7.228 -9.401,-11.233z" fill="#e1e445" stroke="#444444" stroke-linecap="round"/><path d="M207.511,105.789c-8.125,-4.572 -14.947,-8.8201 -19.149,-17.2353c19.344,-12.1448 41.564,-22.7175 65.025,-18.6433c11.206,1.9461 22.143,4.8005 31.978,10.4743c3.913,2.2575 7.13,5.2939 10.974,7.612c2.891,1.7436 4.237,4.8396 6.855,6.9004c2.055,1.6183 3.715,2.4913 4.59,5.0746c-0.692,0.6813 -1.145,1.6173 -1.886,2.2283c-1.935,1.594 -3.837,2.01 -6.037,3.063c-3.167,1.515 -6.056,3.64 -9.245,5.075c-4.353,1.958 -9.222,2.322 -13.866,3.218c-5.82,1.122 -11.362,2.332 -17.326,2.63c-6.726,0.337 -13.437,-0.617 -20.124,-1.176c-4.693,-0.392 -9.366,-1.142 -13.992,-2.011c-6.477,-1.218 -12.104,-4.006 -17.797,-7.21z" fill="#d04691" stroke="#444444" stroke-linecap="round"/><path d="M313.774,279.721c-12.779,-9.022 -17.948,-21.15 -24.101,-35.074c9.403,-1.112 18.928,-2.029 28.393,-1.052c3.335,0.344 6.662,0.725 9.999,1.052c8.428,0.825 16.205,4.031 24.18,6.622c6.625,2.152 13.685,5.35 19.181,9.623c6.259,4.867 11.303,10.949 16.445,16.895c4.193,4.848 8.283,10.453 11.178,16.152c0.484,0.953 1.274,2.826 1.274,3.899c-5.399,0 -12.812,2.699 -18.112,3.481c-11.161,1.648 -21.597,0.407 -32.261,-3.171c-3.237,-1.087 -6.576,-2.041 -9.748,-3.296c-3.588,-1.419 -6.933,-3.52 -10.376,-5.245c-5.628,-2.818 -10.921,-6.264 -16.052,-9.886z" fill="#e50707" stroke="#444444" stroke-linecap="round"/><path d="M213.296,249.598c3.236,-16.727 10.848,-35.991 20.344,-50.345c9.136,9.636 19.498,18.603 26.554,29.922c5.919,9.494 10.617,19.769 13.662,30.51c2.993,10.556 3.877,21.63 3.428,32.552c-0.359,8.74 -2.363,16.596 -4.968,24.879c-1.355,4.308 -2.601,8.387 -4.402,12.547c-1.043,2.408 -2.776,4.48 -3.711,6.916c-0.608,1.586 -2.264,4.126 -2.264,5.817c-0.543,1.069 -3.399,-3.464 -3.867,-3.775c-4.465,-2.963 -9.089,-5.761 -13.08,-9.344c-8.675,-7.788 -16.501,-17.3 -21.712,-27.695c-8.07,-16.096 -13.474,-33.941 -9.984,-51.984z" fill="#d04691" stroke="#444444" stroke-linecap="round"/><path d="M315.479,373.277c-4.37,-15.553 -4.142,-33.22 -4.748,-49.215c30.401,2.393 58.117,18.133 78.326,40.257c8.386,9.182 14.034,20.807 18.426,32.274c3.905,10.199 4.656,21.935 5.251,32.723c0.377,6.839 -0.935,13.394 -1.242,20.19c-0.139,3.068 -0.865,6 -0.865,9.082c0,2.503 -0.283,10.007 -0.283,7.504c-0.205,0.402 -1.029,-0.267 -1.764,-0.913c-3.465,-1.866 -8.283,-4.735 -11.379,-5.601c-13.294,-3.718 -25.983,-9.214 -37.072,-17.468c-15.484,-11.524 -28.244,-25.78 -35.972,-43.413c-3.567,-8.14 -6.281,-16.888 -8.678,-25.42z" fill="#e1e445" stroke="none" stroke-linecap="butt"/><path d="M410.344,466.092c-3.39,-1.65 -9.474,-5.488 -13.143,-6.514c-13.294,-3.718 -25.983,-9.214 -37.072,-17.468c-15.484,-11.524 -28.244,-25.78 -35.972,-43.413c-3.567,-8.14 -6.281,-16.888 -8.678,-25.42c-4.37,-15.553 -4.142,-33.22 -4.748,-49.215c30.401,2.393 58.117,18.133 78.326,40.257c8.386,9.182 14.034,20.807 18.426,32.274c3.905,10.199 4.656,21.935 5.251,32.723c0.377,6.839 -0.935,13.394 -1.242,20.19c-0.139,3.068 -0.865,6 -0.865,9.082c0,2.503 -0.283,10.007 -0.283,7.504zM410.344,466.092l-2.884,-1.838c0.536,0.262 2.547,2.5 2.884,1.838z" fill="none" stroke="#444444" stroke-linecap="round"/><path d="M141.911,342.412c-9.03,-14.72 -14.333,-31.342 -19.982,-47.498c10.35,-0.474 21.413,0.069 31.506,2.661c9.303,2.39 18.513,4.906 27.325,8.726c10.762,4.667 20.825,10.784 30.437,17.422c10.297,7.11 20.852,13.775 29.541,22.851c8.067,8.426 13.191,20.006 18.599,30.123c2.364,4.422 5.119,9.061 6.603,13.909c1.008,3.29 1.808,6.784 2.689,10.119c0.467,1.767 0.684,3.377 1.446,5.044c0.317,0.693 1.274,0.896 1.274,1.655h-3.821c-2.932,0 -5.95,-0.329 -8.883,-0.495c-6.135,-0.349 -12.537,-0.349 -18.488,-1.981c-4.809,-1.318 -9.443,-3.173 -14.213,-4.61c-5.157,-1.554 -10.3,-2.945 -15.281,-5.013c-10.049,-4.172 -19.871,-8.911 -29.164,-14.543c-10.753,-6.517 -21.193,-13.818 -29.101,-23.61c-3.772,-4.67 -7.353,-9.651 -10.487,-14.76z" fill="#ed9716" stroke="#444444" stroke-linecap="round"/><path d="M147.084,381.826c8.099,6.162 15.401,12.625 22.387,19.958c-4.685,3.746 -10.967,7.716 -16.413,10.304c-6.324,3.007 -11.872,6.525 -18.678,8.51c-19.316,5.634 -38.8949,2.185 -58.1075,-2.042c-9.3253,-2.052 -17.9784,-6.992 -25.8781,-12.161c-5.9109,-3.868 -11.4998,-8.163 -16.5078,-13.12c-2.009,-1.989 -6.7749,-5.025 -4.9052,-8.092c0.9779,-1.604 1.6727,-3.156 3.1286,-4.425c1.9243,-1.677 4.2861,-2.828 6.2887,-4.425c2.5843,-2.06 5.3919,-2.627 8.5212,-3.543c5.0773,-1.485 9.5233,-4.5 14.7156,-5.786c5.3381,-1.322 10.879,-1.736 16.2878,-2.707c6.0341,-1.084 12.0931,-2.275 18.253,-2.275c8.7497,0 17.6317,1.732 25.8937,4.518c9.305,3.137 17.335,9.444 25.014,15.286z" fill="#d04691" stroke="#444444" stroke-linecap="round"/><path d="M147.981,452.441c15.793,-6.165 25.202,-8.013 41.618,-12.191c0,1.044 -0.278,1.844 -0.589,2.842c-1.021,3.274 -1.516,6.703 -2.437,10.009c-3.227,11.578 -6.739,24.53 -14.982,33.761c-11.344,12.703 -26.156,23.074 -41.463,30.713c-17.857,8.912 -28.889,11.389 -47.9882,17.208c0,-1.625 0.4381,-3.23 0.7207,-4.822c1.0827,-6.098 2.0084,-12.2 4.3247,-17.967c3.9026,-9.718 8.4651,-18.912 14.1338,-27.692c4.474,-6.931 9.56,-12.118 16.609,-16.583c9.275,-5.876 19.919,-11.322 30.053,-15.278z" fill="#e50707" stroke="#444444" stroke-linecap="round"/><path d="M84.165,434.368c10.3326,0.036 26.263,1.577 35.484,5.993c-0.979,0 -4.052,2.363 -4.528,3.088c-1.867,2.848 -2.493,6.219 -4.591,8.959c-10.318,13.473 -24.091,24.107 -40.1058,30.2c-16.122,6.134 -34.1171,6.508 -51.0487,3.806c-4.553,-0.726 -8.7192,-2.177 -12.87616,-4.084c-1.64705,-0.756 -4.27472,-1.228 -5.56552,-2.569c-0.7065,-0.733 2.36207,-3.687 2.70414,-4.177c2.17455,-3.113 3.94449,-6.493 6.10006,-9.623c3.59678,-5.224 9.23378,-9.834 14.21248,-13.708c10.6921,-8.32 23.6915,-13.254 36.8991,-16.183c7.7295,-1.715 15.4426,-1.73 23.3154,-1.702z" fill="#e1e445" stroke="#444444" stroke-linecap="round"/><path d="M114.846,559.046c-1.804,1.024 -2.243,2.752 -2.893,4.611c2.586,3.166 6.561,7.102 9.842,9.546c2.512,1.87 4.635,4.219 7.389,5.771c5.797,3.264 11.936,7.126 18.348,9.019c6.849,2.023 13.287,5.715 20.359,7.009c6.431,1.177 13.006,2.206 19.527,2.754c8.161,0.686 16.2,-0.393 24.321,-1.098c3.691,-0.321 7.362,-0.669 10.864,-1.934c4.032,-1.458 7.799,-3.503 11.792,-5.044c5.64,-2.177 15.09,-8.151 20.488,-10.807c-2.033,-2.001 -2.987,-4.413 -5.175,-6.243c-5.025,-4.199 -9.651,-8.82 -15.03,-12.624c-3.296,-2.331 -6.865,-4.432 -10.251,-6.653c-2.912,-1.91 -5.792,-3.073 -8.899,-4.58c-6.8,-3.298 -13.163,-5.678 -20.642,-7.132c-8.832,-1.717 -17.683,-3.084 -26.696,-2.197c-8.102,0.797 -15.987,2.881 -23.85,4.842c-3.915,0.977 -7.221,2.984 -10.848,4.611c-3.468,1.555 -6.973,2.962 -10.282,4.842c-2.878,1.636 -5.481,3.67 -8.364,5.307z" fill="#e1e445" stroke="#444444" stroke-linecap="round"/><path d="M196.293,484.101c-5.453,1.482 -9.895,4.188 -14.62,7.224c8.54,19.82 25.968,35.918 44.303,47.051c12.547,7.618 26.259,11.36 40.735,13.321c10.933,1.48 22.677,3.91 33.739,2.986c7.948,-0.664 16.071,-2.447 23.85,-4.208c6.37,-1.442 12.048,-4.851 18.458,-6.189c3.38,-0.706 6.697,-1.492 10.062,-2.29c1.213,-0.288 2.182,-0.936 3.353,-1.124c-2.206,-3.006 -5.52,-5.536 -7.174,-8.886c-1.537,-3.116 -3.989,-5.07 -6.241,-7.628c-2.888,-3.278 -5.725,-6.599 -8.695,-9.809c-7.259,-7.847 -15.571,-15.073 -24.51,-21.01c-9.837,-6.534 -21.052,-11.119 -32.324,-14.636c-9.897,-3.088 -21.277,-3.308 -31.6,-3.507l-0.299,-0.005c-5.685,-0.11 -11.414,0.168 -17.058,0.82c-6.072,0.7 -11.947,1.237 -17.75,3.218c-4.747,1.62 -9.378,3.354 -14.229,4.672z" fill="#d04691" stroke="none" stroke-linecap="butt"/><path d="M181.358,491.528c4.843,-3.118 9.361,-5.912 14.935,-7.427c4.851,-1.318 9.482,-3.052 14.229,-4.672c5.803,-1.981 11.678,-2.518 17.75,-3.218c5.644,-0.652 11.373,-0.93 17.058,-0.82l0.299,0.005c10.323,0.199 21.703,0.419 31.6,3.507c11.272,3.517 22.487,8.102 32.324,14.636c8.939,5.937 17.251,13.163 24.51,21.01c2.97,3.21 5.807,6.531 8.695,9.809c2.252,2.558 4.704,4.512 6.241,7.628c1.746,3.536 5.341,6.159 7.531,9.391M181.641,491.249c8.528,19.855 25.977,35.979 44.335,47.127c12.547,7.618 26.259,11.36 40.735,13.321c10.933,1.48 22.677,3.91 33.739,2.986c7.948,-0.664 16.071,-2.447 23.85,-4.208c6.37,-1.442 12.048,-4.851 18.458,-6.189c3.38,-0.706 6.697,-1.492 10.062,-2.29c1.426,-0.338 2.515,-1.176 3.993,-1.176" fill="none" stroke="#444444" stroke-linecap="round"/><path d="M319.434,599.473c6.344,-0.684 13.847,0.108 20.186,0.666c0,0.644 -0.368,1.089 -0.691,1.64c-1.802,3.065 -3.444,6.244 -4.591,9.608c-1.365,4.003 -2.218,8.115 -3.899,12.021c-2.373,5.514 -4.862,11.029 -7.452,16.446c-6.894,14.416 -15.569,27.578 -25.752,39.933c-9.525,11.555 -20.857,21.53 -34.305,28.498c-13.703,7.101 -28.988,10.236 -44.289,11.449c-8.364,0.664 -16.714,-0.123 -25.092,-0.123c-0.417,0 -3.885,0.332 -3.914,-0.279c-0.111,-2.274 0.601,-4.56 1.132,-6.745c3.435,-14.164 7.646,-28.275 12.876,-41.882c4.338,-11.287 10.034,-21.536 18.441,-30.402c5.521,-5.822 11.842,-11.236 18.646,-15.564c13.351,-8.492 28.403,-14.96 43.707,-19.185c7.689,-2.123 15.735,-2.888 23.614,-4.085c3.803,-0.577 7.559,-1.583 11.383,-1.996z" fill="#d04691" stroke="#444444" stroke-linecap="round"/><path d="M143.224,608.246c19.194,-0.556 35.393,4.414 53.202,10.83c-4.804,5.778 -9.412,11.667 -14.558,17.173c-8.33,8.913 -16.778,17.373 -28.048,22.62c-8.86,4.125 -18.118,6.078 -27.859,6.529c-13.603,0.629 -27.0763,-0.74 -40.5305,-2.538c-0.2448,-0.032 -10.6279,-1.32 -10.6279,-1.64c0,-1.018 1.9305,-3.156 2.4054,-3.929c3.0105,-4.902 6.1693,-9.778 9.4174,-14.528c7.2826,-10.652 17.2436,-19.169 28.4406,-25.668c8.815,-5.115 17.851,-8.551 28.158,-8.849z" fill="#e50707" stroke="#444444" stroke-linecap="round"/></g></svg>