<svg width="348" height="291" viewBox="0 0 348 291" fill="none" xmlns="http://www.w3.org/2000/svg">
<g id="design-freepik">
<path d="M212.854 82.3681C212.855 82.3761 212.856 82.3841 212.856 82.392C212.583 82.392 212.629 82.3843 212.854 82.3681C212.429 77.1758 213.45 71.3292 216.021 66.9127C217.386 64.5678 218.64 62.1836 220.406 60.0958C222.363 57.7827 224.639 56.0746 227.098 54.3535C229.065 52.977 231.239 52.202 233.372 51.1295C235.346 50.1373 237.505 49.5447 239.636 48.9857C240.925 48.6476 242.101 47.8852 243.392 47.5365C243.97 47.3803 244.743 47.4171 245.329 47.4171C245.916 47.4171 246.199 47.2481 246.165 47.9219C246.119 48.8421 245.834 49.796 245.606 50.6791C245.046 52.8471 244.423 54.982 243.967 57.1758C243.684 58.5388 243.508 59.9032 243.012 61.2139C242.469 62.6468 241.839 64.083 241.21 65.4799C240.583 66.8709 239.493 68.2538 238.539 69.442C237.363 70.9081 236.093 72.2147 234.751 73.518C234.251 74.004 233.852 74.5984 233.307 75.0377C232.71 75.5191 231.991 75.8497 231.37 76.3023C230.143 77.1955 229.061 77.9803 227.663 78.5819C226.565 79.054 225.539 79.6626 224.417 80.0799C223.271 80.506 222.151 80.7837 220.965 81.0677C219.217 81.4863 217.418 81.6948 215.657 82.0935C215.008 82.2403 213.402 82.3289 212.854 82.3681Z" fill="white"/>
<path d="M212.856 82.392C212.426 77.1938 213.446 71.336 216.021 66.9127C217.386 64.5678 218.64 62.1836 220.406 60.0958C222.363 57.7827 224.639 56.0746 227.098 54.3535C229.065 52.977 231.239 52.202 233.372 51.1295C235.346 50.1373 237.505 49.5447 239.636 48.9857C240.925 48.6476 242.101 47.8852 243.392 47.5365C243.97 47.3803 244.743 47.4171 245.329 47.4171C245.916 47.4171 246.199 47.2481 246.165 47.9219C246.119 48.8421 245.834 49.796 245.606 50.6791C245.046 52.8471 244.423 54.982 243.967 57.1758C243.684 58.5388 243.508 59.9032 243.012 61.2139C242.469 62.6468 241.839 64.083 241.21 65.4799C240.583 66.8709 239.493 68.2538 238.539 69.442C237.363 70.9081 236.093 72.2147 234.751 73.518C234.251 74.004 233.852 74.5984 233.307 75.0377C232.71 75.5191 231.991 75.8497 231.37 76.3023C230.143 77.1955 229.061 77.9803 227.663 78.5819C226.565 79.054 225.539 79.6626 224.417 80.0799C223.271 80.506 222.151 80.7837 220.965 81.0677C219.217 81.4863 217.418 81.6948 215.657 82.0935C214.741 82.3008 211.918 82.392 212.856 82.392Z" stroke="#444444" stroke-width="2" stroke-linecap="round"/>
<path d="M262.401 43.6897C264.33 41.4383 267.558 38.5717 270.012 36.9196C270.012 37.8831 270.958 38.526 271.287 39.3497C272.209 41.6545 272.842 44.1724 273.603 46.5403C274.625 49.7184 274.884 52.8674 275.207 56.1681C275.546 59.6318 275.714 63.0608 275.214 66.5157C274.773 69.5584 273.943 72.2801 272.492 74.9962C270.631 78.4793 269.129 82.2317 266.976 85.5504C265.011 88.5784 262.816 91.4523 260.783 94.43C260.444 94.9265 259.129 97.5204 258.274 97.3304C257.775 97.2195 257.427 95.3159 257.312 94.9003C257.115 94.1842 256.591 93.5869 256.215 92.9548C255.555 91.846 254.937 90.5743 254.519 89.3559C252.331 82.9822 250.57 76.4267 251.155 69.6442C251.451 66.2179 252.72 63.0964 253.435 59.767C254.027 57.0125 254.803 54.191 256.372 51.8139C257.305 50.3995 258.002 48.8708 259.072 47.5451C260.14 46.2235 261.296 44.9784 262.401 43.6897Z" fill="white" stroke="#444444" stroke-width="2" stroke-linecap="round"/>
<path d="M300.24 74.4625C303.288 73.5479 307.402 72.6205 310.569 72.459C310.569 72.459 309.036 75.6528 309 76C308.771 78.1878 309.012 79.9347 308.514 82.0836C308.085 83.939 307.662 85.8011 307.178 87.6432C306.455 90.3985 305.157 93.1167 303.847 95.6414C301.765 99.6545 299.083 103.661 295.906 106.913C292.984 109.904 289.644 112.442 286.137 114.711C284.461 115.796 282.606 116.755 280.812 117.627C278.995 118.51 277.123 119.449 275.204 120.08C273.461 120.653 271.787 121.457 270.003 121.898C268.83 122.188 267.628 122.258 266.452 122.509C265.462 122.72 264.432 122.94 263.484 123.301C261.752 123.961 260.341 124.717 258.5 125C258.316 124.448 258.041 124.195 258.187 123.654C258.844 121.219 259.081 118.732 259.857 116.315C260.627 113.916 261.216 111.534 262.215 109.204C262.777 107.892 263.166 106.514 263.732 105.205C264.087 104.384 264.568 103.625 264.935 102.809C266.652 98.9902 268.798 95.4219 271.33 92.0814C273.509 89.2058 275.81 86.5701 278.736 84.4268C279.438 83.9124 280.062 83.2984 280.807 82.8425C281.395 82.4829 282.033 82.2003 282.64 81.8737C284.183 81.0429 285.762 80.2476 287.273 79.3635C288.313 78.7555 289.369 78.3186 290.49 77.8794C291.499 77.484 292.448 76.9619 293.453 76.5622C295.639 75.6938 297.986 75.1384 300.24 74.4625Z" fill="white" stroke="#444444" stroke-width="2" stroke-linecap="round"/>
<path d="M293.045 116.794C291.471 117.697 290.17 119.503 288.874 120.774C291.13 121.225 293.258 122.432 295.45 123.122C298.61 124.117 301.693 125.46 304.756 126.72C307.665 127.917 310.574 129.065 313.537 130.118C314.901 130.603 316.272 130.746 317.698 130.915C319.541 131.134 321.376 131.302 323.234 131.302C327.035 131.302 330.941 130.885 334.435 129.312C337.363 127.993 339.944 126.223 342.543 124.353C343.555 123.625 344.638 122.996 345.692 122.33C345.8 122.262 346.675 121.922 346.675 121.757C346.675 121.512 346.055 120.989 345.897 120.808C344.964 119.734 343.711 118.876 342.676 117.901C340.965 116.291 338.902 115.138 337.026 113.74C332.1 110.068 326.039 108.053 319.889 107.98C316.394 107.938 313.089 108.283 309.7 109.159C308.249 109.534 306.787 109.861 305.372 110.361C303.927 110.872 302.529 111.561 301.139 112.203C298.313 113.509 295.737 115.251 293.045 116.794Z" fill="white" stroke="#444444" stroke-width="2" stroke-linecap="round"/>
<path d="M202.469 108.976C208.278 103.038 215.681 96.8069 223.87 94.502C223.87 95.8135 224.762 97.346 225.192 98.568C226.335 101.815 227.081 105.076 227.409 108.507C227.801 112.602 227.854 116.518 227.183 120.588C226.53 124.553 224.682 128.234 223.301 131.983C222.447 134.304 221.015 136.114 219.67 138.157C218.347 140.167 216.981 142.11 215.42 143.947C211.696 148.331 207.518 152.893 202.963 156.429C201.38 157.658 199.634 158.65 198.069 159.91C197.393 160.453 196.617 160.634 195.893 161.064C195.517 161.287 194.956 161.65 194.956 160.989C194.956 157.464 193.744 154.211 193.333 150.74C192.964 147.622 191.713 144.67 191.526 141.504C191.279 137.325 191.22 133.106 191.576 128.929C192.222 121.356 197.337 114.222 202.469 108.976Z" fill="white" stroke="#444444" stroke-width="2" stroke-linecap="round"/>
<path d="M289.493 139.988C297.254 142.95 305.918 147.258 311.295 153.851C310.092 154.373 309.042 155.802 308.092 156.683C305.57 159.025 302.875 161.008 299.859 162.677C296.26 164.668 292.689 166.276 288.689 167.283C284.792 168.263 280.679 168.034 276.691 168.262C274.221 168.403 271.991 167.811 269.581 167.392C267.21 166.979 264.884 166.5 262.577 165.8C257.073 164.131 251.224 162.117 246.165 159.347C244.407 158.385 242.803 157.179 241.023 156.245C240.255 155.842 239.78 155.203 239.097 154.71C238.743 154.454 238.187 154.084 238.793 153.82C242.026 152.416 244.527 150.008 247.547 148.248C250.259 146.668 252.468 144.344 255.298 142.911C259.033 141.019 262.879 139.284 266.852 137.947C274.055 135.522 282.636 137.371 289.493 139.988Z" fill="white" stroke="#444444" stroke-width="2" stroke-linecap="round"/>
<path d="M259.072 185.689C261.619 186.172 264.053 186.467 266.635 186.66C262.226 193.748 255.442 201.496 248.884 206.628C245.158 209.544 240.815 212.282 236.35 213.915C232.393 215.362 227.965 216.018 223.832 216.79C219.458 217.607 215.013 218.091 210.574 218.35C208.217 218.487 205.58 218.544 203.271 217.972C202.273 217.724 201.397 217.381 200.49 216.948C200.137 216.779 199.385 216.176 199.019 216.176C198.852 216.176 199.844 214.956 199.956 214.821C200.877 213.707 201.673 212.931 202.181 211.541C202.613 210.36 203.47 209.342 204.206 208.328C205.237 206.909 206.225 205.381 207.335 204.028C208.402 202.727 209.803 201.642 210.723 200.247C211.377 199.256 212.101 198.426 213.091 197.77C214.049 197.136 214.485 196.38 215.149 195.486C215.784 194.632 216.803 194.014 217.592 193.319C218.452 192.562 219.122 191.616 220.01 190.893C221.196 189.926 222.779 189.304 224.101 188.5C226.676 186.934 229.621 186.093 232.585 185.723C234.535 185.479 236.43 184.864 238.374 184.551C240.432 184.221 242.47 184.1 244.557 184.1C247.093 184.1 249.953 183.757 252.429 184.342C254.656 184.868 256.819 185.262 259.072 185.689Z" fill="white" stroke="#444444" stroke-width="2" stroke-linecap="round"/>
<path d="M292.517 173.646C291.207 174.472 290.329 175.42 289.523 176.74C289.545 176.98 289.213 176.842 289.5 177C290.074 177.315 290.422 177.77 290.978 178.117C292.784 179.242 294.718 180.195 296.623 181.153C298.979 182.337 301.284 183.6 303.636 184.794C306.019 186.004 308.372 187.193 310.919 188.017C312.339 188.476 313.724 188.966 315.211 189.165C316.719 189.367 318.238 189.362 319.756 189.356C322.413 189.346 325.251 189.131 327.777 188.27C330.872 187.214 333.724 185.563 336.491 183.848C338.689 182.486 340.915 181.173 343.147 179.867C343.57 179.62 344.001 179.388 344.416 179.129C344.444 179.112 344.463 179.086 344.466 179.054C344.471 179.012 344.446 178.969 344.42 178.938C344.13 178.584 344.001 178.135 343.761 177.735C343.085 176.609 341.871 175.658 340.904 174.778C340.015 173.971 339.209 173.157 338.253 172.423C337.304 171.694 336.353 170.969 335.4 170.245C333.175 168.555 330.576 167.468 327.893 166.737C324.58 165.833 320.914 165.479 317.488 165.779C315.593 165.944 313.747 166.336 311.868 166.604C310.127 166.852 308.373 166.997 306.655 167.388C304.6 167.856 302.607 168.567 300.654 169.354C299.183 169.946 297.823 170.758 296.391 171.431C295.047 172.064 293.773 172.855 292.517 173.646Z" fill="white" stroke="#444444" stroke-width="2" stroke-linecap="round"/>
<path d="M274.059 208.652C270.899 202.948 270.167 196.55 269.868 190.154C274.392 189.293 279.047 189.863 283.17 191.938C285.718 193.22 288.179 194.609 290.598 196.115C293.287 197.79 295.694 199.724 298.054 201.839C299.827 203.429 301.396 205.188 302.822 207.09C304.094 208.786 305.493 210.536 306.488 212.413C307.858 214.994 309.133 217.712 309.549 220.63C309.833 222.616 310.06 224.599 310.06 226.605C310.06 227.346 309.975 228.085 309.975 228.814C309.975 229.356 309.473 229.24 309.076 229.24C308.456 229.24 307.248 229.409 306.739 229.07C305.956 229.226 305.695 228.399 304.894 228.388C304.448 228.383 303.989 228.308 303.551 228.228C301.487 227.85 299.432 227.311 297.391 226.827C295.63 226.41 294.142 225.849 292.519 225.086C291.212 224.473 289.835 223.989 288.601 223.232C282.746 219.639 277.408 214.696 274.059 208.652Z" fill="white" stroke="#444444" stroke-width="2" stroke-linecap="round"/>
<path d="M308.156 202.483C306.791 199.933 305.59 197.2 304.863 194.398C307.28 194.063 309.626 193.928 312.064 194.119C316.014 194.427 319.94 194.597 323.739 195.826C330.793 198.108 337.615 202.443 341.272 209.106C343.155 212.538 343.329 216.293 344.441 219.949C344.654 220.648 344.779 221.395 344.951 222.084C342.666 222.067 340.388 221.986 338.102 221.921C336.311 221.871 334.542 221.78 332.765 221.524C330.512 221.199 328.293 220.469 326.142 219.745C324.621 219.233 323.333 218.464 321.965 217.646L321.965 217.646L321.922 217.621C320.749 216.92 319.617 216.254 318.535 215.407C316.387 213.726 314.456 211.88 312.707 209.787C310.88 207.601 309.495 204.984 308.156 202.483Z" fill="white"/>
<path d="M304.844 194.327C305.57 197.154 306.779 199.911 308.156 202.483C309.495 204.984 310.88 207.601 312.707 209.787C314.456 211.88 316.387 213.726 318.535 215.407C319.617 216.254 320.749 216.92 321.922 217.621L321.965 217.646C323.333 218.464 324.621 219.233 326.142 219.745C328.293 220.469 330.512 221.199 332.765 221.524C334.542 221.78 336.311 221.871 338.102 221.921C340.672 221.994 343.231 222.087 345.803 222.087M304.759 194.412C307.213 194.067 309.591 193.926 312.064 194.119C316.014 194.427 319.94 194.597 323.739 195.826C330.793 198.108 337.615 202.443 341.272 209.106C343.155 212.538 343.329 216.293 344.441 219.949C344.654 220.649 344.78 221.398 344.952 222.087" stroke="#444444" stroke-width="2" stroke-linecap="round"/>
<path d="M249.996 217.089C244.347 217.813 238.589 220.747 233.571 223.343C238.305 228.078 243.826 231.96 249.816 234.962C255.289 237.704 261.277 240.483 267.538 240.27C270.61 240.165 273.319 239.387 276.233 238.491C278.483 237.799 280.456 236.728 282.601 235.785C284.163 235.098 285.61 234.184 287.142 233.429C287.791 233.109 288.887 233.023 289.602 232.88C288.988 232.228 288.328 231.626 287.7 230.988C287.088 230.366 286.6 229.633 285.955 229.044C284.503 227.717 282.956 226.478 281.418 225.254C279.142 223.443 276.621 222.083 274.057 220.727C271.598 219.427 268.983 218.266 266.308 217.491C263.736 216.747 260.828 216.461 258.161 216.313C255.46 216.164 252.665 216.747 249.996 217.089Z" fill="white" stroke="#444444" stroke-width="2" stroke-linecap="round"/>
<path d="M201.759 238.3C199.388 234.682 197.543 230.836 195.579 226.985C200.355 225.838 205.529 225.372 210.417 225.963C214.901 226.506 219.254 227.768 223.382 229.631C227.674 231.568 231.616 234.557 235.011 237.843C238.884 241.591 242.233 245.92 245.567 250.16C248.339 253.684 250.748 257.368 252.624 261.465C253.537 263.458 254.554 265.817 255.223 267.915C255.198 268.002 254.974 267.964 254.913 267.964C252.729 267.964 250.599 268.721 248.438 269.015C241.194 269.997 233.296 267.428 226.915 264.277C223.561 262.62 220.783 260.092 218.046 257.554C215.156 254.873 212.388 252.073 209.807 249.08C206.874 245.678 204.226 242.064 201.759 238.3Z" fill="white"/>
<path d="M255.223 267.915C255.198 268.002 254.974 267.964 254.913 267.964C252.729 267.964 250.599 268.721 248.438 269.015C241.194 269.997 233.296 267.428 226.915 264.277C223.561 262.62 220.783 260.092 218.046 257.554C215.156 254.873 212.388 252.073 209.807 249.08C206.874 245.678 204.226 242.064 201.759 238.3C199.388 234.682 197.543 230.836 195.579 226.985C200.355 225.838 205.529 225.372 210.417 225.963C214.901 226.506 219.254 227.768 223.382 229.631C227.674 231.568 231.616 234.557 235.011 237.843C238.884 241.591 242.233 245.92 245.567 250.16C248.339 253.684 250.748 257.368 252.624 261.465C253.537 263.458 254.554 265.817 255.223 267.915ZM255.223 267.915C255.245 267.836 255.24 267.969 255.223 267.915Z" stroke="#444444" stroke-width="2" stroke-linecap="round"/>
<path d="M198.05 35.079C201.285 32.1206 205.572 29.8999 209.38 27.7647C209.807 29.4707 210.831 31.0567 211.309 32.7764C212.117 35.6853 212.1 38.7941 212.472 41.7719C212.892 45.1349 212.759 48.9003 212.456 52.2733C212.115 56.0718 211.674 59.6044 210.329 63.205C209.241 66.1151 208.09 69.2452 206.305 71.81C203.939 75.2086 201.497 78.312 198.712 81.3792C196.18 84.1681 193.502 86.8175 190.752 89.3868C189.441 90.6113 187.922 91.5596 186.521 92.6694C185.484 93.4911 184.619 94.3544 183.454 94.996C183.207 95.1318 181.271 96.717 181.271 95.8167C181.271 95.0187 180.57 93.9336 180.298 93.1634C179.986 92.2783 179.971 91.2579 179.773 90.3429C179.479 88.9891 179.034 87.6763 178.753 86.3192C177.984 82.6149 177.853 78.7833 178.06 75.0131C178.228 71.9421 178.517 68.7491 179.287 65.7626C179.764 63.9078 180.541 62.1616 181.047 60.3207C182.455 55.1986 185.002 49.9742 188.266 45.7398C191.231 41.8937 194.464 38.3592 198.05 35.079Z" fill="white" stroke="#444444" stroke-width="2" stroke-linecap="round"/>
<path d="M152.796 35.5156C150.426 26.4424 153.31 17.8491 157.385 9.78923C157.575 10.9277 159.19 11.8917 159.972 12.6326C161.95 14.5062 164.021 16.2656 165.93 18.2126C167.796 20.1163 169.339 22.36 170.655 24.6763C171.868 26.8137 173.032 29.2203 173.926 31.5106C175.727 36.1273 176.712 41.5335 176.085 46.4761C175.712 49.4178 174.931 52.1182 174.09 54.9423C173.517 56.8639 172.96 58.9708 172.907 60.9855C172.872 62.2846 172.483 62.3936 171.617 61.7979C170.425 60.9785 169.432 59.6586 168.296 58.7193C166.687 57.3885 165.042 55.8374 163.628 54.308C161.064 51.5344 158.556 48.7453 156.772 45.3929C155.056 42.166 153.721 39.0591 152.796 35.5156Z" fill="white" stroke="#444444" stroke-width="2" stroke-linecap="round"/>
<path d="M112.14 16.933C110.371 12.0418 110.812 6.81168 111.608 1.72241C120.188 4.15527 129.167 7.52611 135.297 14.3257C139.378 18.8522 141.642 24.1611 144.184 29.6168C145.084 31.548 145.71 33.5918 146.501 35.5685C147.153 37.1991 147.755 38.9342 147.987 40.6842C148.142 41.8547 148.161 43.1013 148.235 44.2824C148.288 45.1336 148.004 46.4229 148.396 47.2057C147.88 47.2057 145.954 46.1941 145.46 46.066C143.937 45.6712 142.555 45.0322 141.1 44.4434C139.06 43.6177 136.965 42.9877 135.018 41.9413C132.791 40.7441 130.629 39.4364 128.621 37.8971C123.761 34.1728 119.234 29.4188 115.739 24.3834C114.184 22.1443 113.064 19.4857 112.14 16.933Z" fill="white" stroke="#444444" stroke-width="2" stroke-linecap="round"/>
<path d="M107.145 68.2008C104.369 64.0701 103.232 59.9247 102.104 55.0092C105.156 54.4712 108.11 54.1446 111.19 54.5633C112.542 54.7471 113.901 54.8391 115.253 55.0154C116.534 55.1825 117.816 55.3535 119.074 55.6533C120.975 56.1063 122.646 57.0214 124.487 57.6351C127.996 58.805 131.321 60.5986 134.278 62.8374C135.392 63.6809 136.522 64.492 137.53 65.4634C138.511 66.4093 139.742 67.1283 140.49 68.2875C141.096 69.2256 141.902 69.9658 142.565 70.8577C143.317 71.8707 143.978 72.9826 144.59 74.0844C145.125 75.0479 145.822 75.8999 146.275 76.9085C146.603 77.6414 146.881 78.2954 147.34 78.9523C147.915 79.7753 148.136 80.9655 148.764 81.7083L148.791 81.7404C149.121 82.1296 149.594 82.688 149.594 83.2132C147.255 83.5474 144.382 84.7321 142.013 84.5262C137.939 84.1719 133.976 83.7826 129.943 83.0336C127.498 82.5795 124.83 82.2658 122.492 81.3924C119.978 80.4531 117.33 78.9227 115.271 77.212C113.638 75.8546 112.28 74.2573 110.849 72.6971C109.545 71.2757 108.223 69.8037 107.145 68.2008Z" fill="white" stroke="#444444" stroke-width="2" stroke-linecap="round"/>
<path d="M83.3389 43.6259C80.1383 41.7958 77.4509 40.0952 75.7955 36.7266C83.4158 31.8651 92.169 27.6329 101.411 29.2638C105.825 30.0428 110.133 31.1854 114.008 33.4566C115.549 34.3603 116.817 35.5757 118.331 36.5037C119.47 37.2017 120 38.441 121.031 39.2659C121.841 39.9137 122.495 40.2631 122.839 41.2973C122.567 41.57 122.388 41.9448 122.096 42.1891C121.334 42.8273 120.585 42.9939 119.718 43.4154C118.471 44.0217 117.332 44.8726 116.076 45.4467C114.362 46.2306 112.443 46.3765 110.614 46.7349C108.322 47.1841 106.138 47.6683 103.789 47.7878C101.14 47.9225 98.4957 47.5408 95.8616 47.3171C94.0127 47.16 92.172 46.8601 90.3497 46.512C87.798 46.0246 85.5815 44.9083 83.3389 43.6259Z" fill="white" stroke="#444444" stroke-width="2" stroke-linecap="round"/>
<path d="M125.199 113.25C120.165 109.639 118.129 104.784 115.705 99.2104C119.409 98.7651 123.161 98.3983 126.89 98.7892C128.203 98.927 129.514 99.0796 130.829 99.2104C134.149 99.5407 137.212 100.824 140.354 101.861C142.963 102.722 145.745 104.003 147.91 105.713C150.375 107.661 152.362 110.096 154.388 112.476C156.04 114.417 157.651 116.661 158.791 118.942C158.982 119.323 159.293 120.073 159.293 120.503C157.166 120.503 154.246 121.583 152.158 121.896C147.761 122.556 143.651 122.059 139.45 120.627C138.175 120.192 136.859 119.81 135.61 119.307C134.196 118.739 132.879 117.898 131.522 117.208C129.305 116.08 127.22 114.7 125.199 113.25Z" fill="white" stroke="#444444" stroke-width="2" stroke-linecap="round"/>
<path d="M85.618 101.192C86.8927 94.4967 89.8913 86.7852 93.6319 81.0393C97.231 84.8966 101.313 88.4862 104.092 93.0171C106.424 96.8174 108.275 100.93 109.474 105.23C110.653 109.456 111.001 113.889 110.824 118.261C110.683 121.759 109.894 124.904 108.867 128.219C108.334 129.944 107.843 131.577 107.133 133.242C106.722 134.206 106.04 135.035 105.672 136.011C105.432 136.646 104.78 137.662 104.78 138.339C104.566 138.767 103.441 136.952 103.256 136.828C101.498 135.642 99.6761 134.522 98.1036 133.087C94.6863 129.97 91.6034 126.162 89.5507 122.001C86.372 115.558 84.243 108.415 85.618 101.192Z" fill="white" stroke="#444444" stroke-width="2" stroke-linecap="round"/>
<path d="M125.87 150.701C124.149 144.475 124.239 137.403 124 131C135.976 131.958 146.894 138.259 154.855 147.115C158.158 150.79 160.383 155.444 162.113 160.034C163.652 164.117 163.948 168.814 164.182 173.133C164.33 175.871 163.813 178.494 163.693 181.215C163.638 182.443 163.352 183.617 163.352 184.85C163.352 185.852 163.24 188.856 163.24 187.854C163.16 188.015 162.835 187.747 162.546 187.489C161.18 186.742 159.283 185.593 158.063 185.247C152.826 183.758 147.828 181.558 143.459 178.254C137.36 173.641 132.333 167.935 129.289 160.876C127.884 157.618 126.815 154.116 125.87 150.701Z" fill="white"/>
<path d="M163.24 187.854C161.905 187.194 159.508 185.657 158.063 185.247C152.826 183.758 147.828 181.558 143.459 178.254C137.36 173.641 132.333 167.935 129.289 160.876C127.884 157.618 126.815 154.116 125.87 150.701C124.149 144.475 124.239 137.403 124 131C135.976 131.958 146.894 138.259 154.855 147.115C158.158 150.79 160.383 155.444 162.113 160.034C163.652 164.117 163.948 168.814 164.182 173.133C164.33 175.871 163.813 178.494 163.693 181.215C163.638 182.443 163.352 183.617 163.352 184.85C163.352 185.852 163.24 188.856 163.24 187.854ZM163.24 187.854L162.104 187.119C162.315 187.223 163.108 188.119 163.24 187.854Z" stroke="#444444" stroke-width="2" stroke-linecap="round"/>
<path d="M57.4974 138.346C53.9403 132.453 51.851 125.799 49.6258 119.332C53.703 119.143 58.0609 119.36 62.0371 120.397C65.7015 121.354 69.3296 122.361 72.8009 123.89C77.0406 125.758 81.0045 128.207 84.7911 130.864C88.8474 133.71 93.0051 136.378 96.4282 140.012C99.606 143.385 101.624 148.02 103.755 152.07C104.686 153.84 105.771 155.697 106.356 157.638C106.753 158.954 107.068 160.353 107.415 161.688C107.599 162.395 107.684 163.04 107.985 163.707C108.11 163.984 108.486 164.066 108.486 164.37H106.981C105.826 164.37 104.638 164.238 103.482 164.171C101.066 164.032 98.5435 164.032 96.199 163.379C94.3047 162.851 92.4793 162.108 90.6003 161.533C88.5688 160.911 86.543 160.354 84.5805 159.526C80.6222 157.857 76.7528 155.959 73.092 153.705C68.8564 151.096 64.7437 148.174 61.6283 144.254C60.1426 142.385 58.732 140.391 57.4974 138.346Z" fill="white" stroke="#444444" stroke-width="2" stroke-linecap="round"/>
<path d="M59.5349 154.123C62.7257 156.59 65.6019 159.176 68.3541 162.112C66.5085 163.612 64.0337 165.2 61.8883 166.237C59.3971 167.44 57.2116 168.848 54.5307 169.643C46.9213 171.899 39.2088 170.518 31.6405 168.826C27.967 168.004 24.5583 166.027 21.4464 163.958C19.1179 162.409 16.9163 160.69 14.9435 158.706C14.1521 157.91 12.2747 156.694 13.0112 155.467C13.3964 154.825 13.6701 154.203 14.2436 153.695C15.0016 153.024 15.932 152.563 16.7209 151.924C17.739 151.099 18.8449 150.872 20.0777 150.506C22.0777 149.911 23.8292 148.705 25.8745 148.19C27.9774 147.66 30.1601 147.495 32.2908 147.106C34.6677 146.672 37.0546 146.195 39.4811 146.195C42.9278 146.195 46.4267 146.889 49.6814 148.004C53.3467 149.26 56.5102 151.784 59.5349 154.123Z" fill="white" stroke="#444444" stroke-width="2" stroke-linecap="round"/>
<path d="M59.8886 182.39C66.1096 179.922 69.8161 179.182 76.2828 177.51C76.2828 177.928 76.1734 178.248 76.0508 178.647C75.6486 179.958 75.4537 181.331 75.0908 182.654C73.8198 187.289 72.4363 192.473 69.189 196.169C64.7204 201.253 58.8854 205.405 52.8557 208.463C45.8213 212.03 41.4755 213.022 33.9518 215.351C33.9518 214.701 34.1244 214.058 34.2357 213.421C34.6622 210.98 35.0268 208.537 35.9393 206.229C37.4766 202.339 39.2739 198.658 41.5069 195.144C43.2696 192.369 45.273 190.293 48.0498 188.506C51.7033 186.154 55.8963 183.973 59.8886 182.39Z" fill="white" stroke="#444444" stroke-width="2" stroke-linecap="round"/>
<path d="M34.7495 175.155C38.8198 175.17 45.0953 175.787 48.7277 177.554C48.3418 177.554 47.1315 178.5 46.944 178.791C46.2085 179.931 45.962 181.28 45.1356 182.376C41.071 187.77 35.6453 192.027 29.3366 194.466C22.9858 196.921 15.897 197.071 9.22714 195.989C7.43358 195.698 5.79243 195.118 4.15487 194.354C3.50605 194.052 2.47094 193.863 1.96246 193.326C1.68415 193.032 2.89294 191.85 3.0277 191.654C3.88431 190.408 4.58154 189.055 5.43068 187.802C6.84756 185.711 9.06811 183.865 11.0294 182.314C15.2413 178.984 20.3621 177.009 25.5649 175.836C28.6098 175.15 31.6482 175.144 34.7495 175.155Z" fill="white" stroke="#444444" stroke-width="2" stroke-linecap="round"/>
<path d="M46.8357 225.063C46.1252 225.473 45.9519 226.165 45.6961 226.909C46.7149 228.176 48.2807 229.752 49.5731 230.73C50.5625 231.479 51.3988 232.419 52.4839 233.04C54.7674 234.347 57.1856 235.893 59.7115 236.651C62.4098 237.46 64.9457 238.938 67.7317 239.457C70.2647 239.927 72.8551 240.34 75.4237 240.559C78.6388 240.833 81.8055 240.401 85.0047 240.119C86.4584 239.991 87.9047 239.852 89.2842 239.345C90.8725 238.762 92.3562 237.943 93.9292 237.326C96.151 236.455 99.8737 234.063 102 233C101.199 232.199 100.824 231.234 99.9614 230.501C97.9822 228.82 96.1597 226.971 94.0406 225.447C92.7426 224.515 91.3363 223.673 90.0026 222.784C88.8557 222.02 87.7211 221.554 86.4972 220.951C83.8184 219.631 81.312 218.678 78.3655 218.096C74.8865 217.409 71.3997 216.862 67.8494 217.217C64.6579 217.536 61.5515 218.37 58.4542 219.155C56.9119 219.546 55.6096 220.35 54.1809 221.001C52.8146 221.623 51.4339 222.186 50.1305 222.939C48.9966 223.594 47.9714 224.408 46.8357 225.063Z" fill="white" stroke="#444444" stroke-width="2" stroke-linecap="round"/>
<path d="M78.92 195.063C76.7719 195.656 75.022 196.74 73.1607 197.955C76.5248 205.889 83.3901 212.333 90.6129 216.789C95.5556 219.839 100.957 221.337 106.66 222.122C110.966 222.714 115.592 223.687 119.95 223.317C123.081 223.051 126.281 222.337 129.345 221.632C131.855 221.055 134.091 219.691 136.616 219.155C137.948 218.873 139.255 218.558 140.58 218.238C141.058 218.123 141.44 217.864 141.901 217.789C141.032 216.585 139.726 215.573 139.075 214.231C138.469 212.984 137.504 212.202 136.616 211.178C135.479 209.866 134.361 208.537 133.191 207.252C130.332 204.111 127.057 201.218 123.536 198.841C119.661 196.226 115.243 194.39 110.803 192.982C106.904 191.746 102.421 191.658 98.3548 191.579L98.2368 191.577C95.9976 191.533 93.7408 191.644 91.5171 191.905C89.1254 192.185 86.811 192.4 84.5249 193.193C82.6552 193.841 80.8308 194.536 78.92 195.063Z" fill="white"/>
<path d="M73.0364 198.036C74.9444 196.788 76.7241 195.67 78.92 195.063C80.8308 194.536 82.6552 193.841 84.5249 193.193C86.811 192.4 89.1254 192.185 91.5171 191.905C93.7408 191.644 95.9976 191.533 98.2368 191.577L98.3548 191.579C102.421 191.658 106.904 191.746 110.803 192.982C115.243 194.39 119.661 196.226 123.536 198.841C127.057 201.218 130.332 204.111 133.191 207.252C134.361 208.537 135.479 209.866 136.616 211.178C137.504 212.202 138.469 212.984 139.075 214.231C139.763 215.647 141.179 216.697 142.042 217.991M73.1479 197.925C76.5074 205.873 83.3809 212.327 90.6129 216.789C95.5556 219.839 100.957 221.337 106.66 222.122C110.966 222.714 115.592 223.687 119.95 223.317C123.081 223.051 126.281 222.337 129.345 221.632C131.855 221.055 134.091 219.691 136.616 219.155C137.948 218.873 139.255 218.558 140.58 218.238C141.142 218.103 141.571 217.768 142.153 217.768" stroke="#444444" stroke-width="2" stroke-linecap="round"/>
<path d="M127.428 241.246C129.928 240.972 132.883 241.289 135.381 241.513C135.381 241.771 135.236 241.949 135.108 242.169C134.398 243.396 133.751 244.669 133.3 246.015C132.762 247.618 132.426 249.264 131.764 250.827C130.829 253.035 129.849 255.242 128.828 257.411C126.113 263.181 122.695 268.45 118.684 273.396C114.931 278.021 110.468 282.014 105.17 284.804C99.7722 287.646 93.751 288.901 87.7235 289.387C84.4284 289.652 81.1391 289.337 77.8391 289.337C77.6748 289.337 76.3086 289.47 76.297 289.226C76.2536 288.315 76.534 287.4 76.7429 286.525C78.0963 280.856 79.755 275.207 81.8151 269.76C83.524 265.242 85.7681 261.14 89.0798 257.59C91.2546 255.26 93.7444 253.093 96.425 251.36C101.684 247.961 107.614 245.372 113.642 243.68C116.671 242.831 119.841 242.524 122.945 242.045C124.442 241.814 125.922 241.412 127.428 241.246Z" fill="white" stroke="#444444" stroke-width="2" stroke-linecap="round"/>
<path d="M58.0145 244.758C65.5756 244.536 71.957 246.525 78.9725 249.093C77.08 251.406 75.2647 253.764 73.2375 255.968C69.9559 259.536 66.6283 262.922 62.1887 265.022C58.6985 266.673 55.0513 267.455 51.2143 267.636C45.8558 267.888 40.5481 267.34 35.2481 266.62C35.1516 266.607 31.0615 266.091 31.0615 265.964C31.0615 265.556 31.8219 264.7 32.009 264.391C33.1949 262.428 34.4393 260.477 35.7188 258.575C38.5876 254.311 42.5116 250.902 46.9224 248.301C50.3946 246.253 53.9544 244.877 58.0145 244.758Z" fill="white" stroke="#444444" stroke-width="2" stroke-linecap="round"/>
</g>
</svg>
