<svg width="877" height="721" viewBox="0 0 877 721" fill="none" xmlns="http://www.w3.org/2000/svg">
<g id="design-freepik">
<path d="M536.291 202.572C536.293 202.592 536.294 202.612 536.296 202.632C535.601 202.632 535.718 202.613 536.291 202.572C535.211 189.601 537.802 174.996 544.329 163.963C547.793 158.105 550.976 152.149 555.461 146.933C560.429 141.155 566.208 136.888 572.449 132.588C577.441 129.149 582.962 127.213 588.377 124.534C593.386 122.055 598.866 120.575 604.276 119.178C607.548 118.334 610.536 116.429 613.811 115.558C615.278 115.168 617.241 115.26 618.729 115.26C620.219 115.26 620.937 114.838 620.851 116.521C620.734 118.819 620.011 121.203 619.432 123.409C618.011 128.825 616.429 134.158 615.271 139.638C614.552 143.043 614.106 146.452 612.846 149.726C611.469 153.306 609.869 156.894 608.272 160.383C606.682 163.858 603.914 167.313 601.493 170.281C598.506 173.943 595.282 177.208 591.876 180.464C590.606 181.678 589.595 183.162 588.211 184.26C586.695 185.463 584.871 186.288 583.293 187.419C580.179 189.65 577.433 191.611 573.882 193.114C571.096 194.293 568.492 195.814 565.643 196.856C562.734 197.921 559.891 198.614 556.88 199.324C552.442 200.369 547.876 200.89 543.405 201.886C541.759 202.253 537.682 202.475 536.291 202.572Z" fill="blue"/>
<path d="M536.296 202.632C535.203 189.646 537.792 175.013 544.329 163.963C547.793 158.105 550.976 152.149 555.461 146.933C560.429 141.155 566.208 136.888 572.449 132.588C577.441 129.149 582.962 127.213 588.377 124.534C593.386 122.055 598.866 120.575 604.276 119.178C607.548 118.334 610.536 116.429 613.811 115.558C615.278 115.168 617.241 115.26 618.729 115.26C620.219 115.26 620.937 114.838 620.851 116.521C620.734 118.819 620.011 121.203 619.432 123.409C618.011 128.825 616.429 134.158 615.271 139.638C614.552 143.043 614.106 146.452 612.846 149.726C611.469 153.306 609.869 156.894 608.272 160.383C606.682 163.858 603.914 167.313 601.493 170.281C598.506 173.943 595.282 177.208 591.876 180.464C590.606 181.678 589.595 183.162 588.211 184.26C586.695 185.463 584.871 186.288 583.293 187.419C580.179 189.65 577.433 191.611 573.882 193.114C571.096 194.293 568.492 195.814 565.643 196.856C562.734 197.921 559.891 198.614 556.88 199.324C552.442 200.369 547.876 200.89 543.405 201.886C541.081 202.404 533.913 202.632 536.296 202.632Z" stroke="#444444" stroke-linecap="round"/>
<path d="M662.065 105.949C666.964 100.324 675.157 93.1631 681.386 89.0359C681.386 91.4429 683.788 93.0488 684.624 95.1067C686.965 100.864 688.572 107.154 690.504 113.07C693.097 121.009 693.755 128.876 694.574 137.121C695.434 145.774 695.862 154.34 694.592 162.971C693.474 170.572 691.365 177.371 687.682 184.157C682.958 192.858 679.147 202.232 673.68 210.523C668.691 218.087 663.121 225.266 657.959 232.705C657.098 233.945 653.761 240.425 651.591 239.951C650.323 239.674 649.439 234.918 649.148 233.88C648.648 232.091 647.318 230.599 646.363 229.02C644.687 226.25 643.119 223.073 642.057 220.029C636.503 204.107 632.032 187.73 633.518 170.787C634.269 162.227 637.492 154.429 639.307 146.112C640.809 139.231 642.778 132.182 646.761 126.244C649.13 122.711 650.899 118.892 653.617 115.58C656.327 112.278 659.261 109.168 662.065 105.949Z" fill="white" stroke="#444444" stroke-linecap="round"/>
<path d="M758.121 182.823C765.86 180.538 776.303 178.221 784.344 177.818C784.344 177.818 780.452 185.797 780.36 186.664C779.78 192.129 780.39 196.493 779.127 201.862C778.036 206.497 776.963 211.149 775.735 215.75C773.899 222.634 770.604 229.424 767.279 235.731C761.994 245.756 755.185 255.766 747.121 263.89C739.703 271.362 731.225 277.701 722.322 283.37C718.068 286.079 713.357 288.475 708.803 290.654C704.191 292.86 699.439 295.206 694.568 296.782C690.144 298.214 685.893 300.221 681.364 301.324C678.386 302.049 675.336 302.224 672.351 302.85C669.838 303.377 667.222 303.926 664.815 304.829C660.42 306.478 656.836 308.367 652.164 309.073C651.697 307.695 650.999 307.061 651.369 305.711C653.037 299.628 653.639 293.415 655.609 287.376C657.564 281.383 659.059 275.433 661.594 269.613C663.021 266.334 664.009 262.892 665.446 259.622C666.347 257.572 667.568 255.675 668.499 253.638C672.857 244.097 678.306 235.183 684.732 226.838C690.264 219.654 696.106 213.07 703.534 207.715C705.316 206.43 706.899 204.896 708.791 203.757C710.284 202.859 711.903 202.153 713.443 201.337C717.36 199.262 721.369 197.275 725.206 195.066C727.845 193.548 730.526 192.456 733.371 191.359C735.933 190.371 738.342 189.067 740.894 188.068C746.442 185.899 752.402 184.512 758.121 182.823Z" fill="white" stroke="#444444" stroke-linecap="round"/>
<path d="M739.858 288.574C735.861 290.829 732.559 295.34 729.27 298.517C734.997 299.644 740.398 302.658 745.964 304.382C753.984 306.867 761.811 310.223 769.587 313.371C776.97 316.36 784.356 319.228 791.878 321.859C795.34 323.071 798.819 323.428 802.441 323.85C807.119 324.396 811.777 324.816 816.494 324.816C826.143 324.816 836.058 323.775 844.927 319.844C852.36 316.55 858.912 312.129 865.509 307.458C868.079 305.638 870.828 304.067 873.504 302.403C873.779 302.233 876 301.384 876 300.973C876 300.36 874.427 299.054 874.025 298.6C871.656 295.919 868.476 293.773 865.848 291.34C861.505 287.318 856.267 284.437 851.505 280.944C838.999 271.772 823.615 266.738 808.002 266.555C799.13 266.451 790.741 267.312 782.138 269.499C778.453 270.436 774.743 271.254 771.15 272.504C767.483 273.779 763.934 275.5 760.404 277.105C753.231 280.367 746.692 284.719 739.858 288.574Z" fill="white" stroke="#444444" stroke-linecap="round"/>
<path d="M509.928 269.042C524.673 254.208 543.467 238.643 564.255 232.885C564.255 236.161 566.519 239.989 567.61 243.042C570.512 251.153 572.405 259.301 573.239 267.872C574.234 278.101 574.367 287.883 572.665 298.051C571.007 307.955 566.314 317.153 562.811 326.518C560.641 332.316 557.008 336.837 553.593 341.942C550.235 346.963 546.766 351.816 542.804 356.405C533.351 367.357 522.745 378.753 511.181 387.588C507.162 390.658 502.731 393.134 498.756 396.283C497.042 397.641 495.072 398.093 493.234 399.167C492.28 399.724 490.856 400.63 490.856 398.979C490.856 390.174 487.777 382.045 486.735 373.376C485.799 365.587 482.624 358.213 482.148 350.302C481.52 339.862 481.371 329.323 482.275 318.889C483.915 299.969 496.899 282.148 509.928 269.042Z" fill="white" stroke="#444444" stroke-linecap="round"/>
<path d="M730.841 346.516C750.541 353.916 772.537 364.678 786.186 381.146C783.132 382.452 780.466 386.02 778.056 388.222C771.652 394.072 764.812 399.027 757.156 403.195C748.019 408.168 738.954 412.186 728.799 414.701C718.908 417.151 708.466 416.579 698.341 417.148C692.073 417.5 686.411 416.022 680.293 414.974C674.275 413.943 668.37 412.745 662.514 410.998C648.54 406.828 633.693 401.796 620.851 394.878C616.389 392.474 612.315 389.461 607.798 387.128C605.848 386.121 604.643 384.524 602.909 383.293C602.009 382.653 600.598 381.729 602.137 381.071C610.343 377.563 616.693 371.545 624.358 367.151C631.245 363.203 636.852 357.398 644.036 353.817C653.516 349.091 663.28 344.758 673.365 341.417C691.652 335.359 713.435 339.978 730.841 346.516Z" fill="white" stroke="#444444" stroke-linecap="round"/>
<path d="M653.616 460.683C660.08 461.89 666.261 462.626 672.816 463.108C661.623 480.814 644.4 500.17 627.753 512.99C618.294 520.275 607.269 527.116 595.936 531.194C585.889 534.81 574.65 536.448 564.158 538.378C553.054 540.419 541.771 541.627 530.501 542.274C524.518 542.618 517.824 542.758 511.963 541.33C509.429 540.712 507.205 539.855 504.903 538.771C504.006 538.349 502.099 536.844 501.169 536.844C500.745 536.844 503.264 533.795 503.547 533.458C505.885 530.676 507.907 528.737 509.197 525.265C510.293 522.314 512.467 519.772 514.336 517.239C516.953 513.694 519.462 509.876 522.28 506.497C524.989 503.247 528.545 500.535 530.881 497.05C532.539 494.575 534.378 492.501 536.891 490.863C539.324 489.278 540.431 487.39 542.116 485.158C543.727 483.023 546.315 481.48 548.318 479.744C550.501 477.851 552.202 475.49 554.455 473.683C557.467 471.268 561.484 469.715 564.841 467.706C571.378 463.794 578.854 461.692 586.376 460.767C591.327 460.158 596.138 458.621 601.073 457.841C606.296 457.015 611.471 456.712 616.768 456.712C623.207 456.712 630.468 455.856 636.753 457.318C642.405 458.633 647.898 459.616 653.616 460.683Z" fill="white" stroke="#444444" stroke-linecap="round"/>
<path d="M738.517 430.598C735.19 432.661 732.963 435.03 730.916 438.327C730.973 438.927 730.129 438.583 730.858 438.977C732.316 439.764 733.198 440.9 734.611 441.767C739.196 444.578 744.104 446.959 748.94 449.351C754.92 452.309 760.771 455.465 766.743 458.447C772.793 461.469 778.765 464.441 785.23 466.498C788.835 467.644 792.352 468.87 796.127 469.367C799.954 469.872 803.812 469.858 807.666 469.844C814.41 469.82 821.613 469.282 828.027 467.13C835.883 464.493 843.124 460.369 850.146 456.085C855.725 452.682 861.378 449.401 867.044 446.139C868.116 445.522 869.211 444.942 870.265 444.295C870.334 444.253 870.383 444.188 870.392 444.108C870.404 444.002 870.341 443.896 870.276 443.818C869.54 442.933 869.211 441.813 868.602 440.814C866.887 438.001 863.803 435.623 861.348 433.427C859.093 431.409 857.048 429.375 854.621 427.542C852.212 425.722 849.796 423.911 847.377 422.103C841.729 417.879 835.132 415.165 828.322 413.338C819.909 411.08 810.604 410.196 801.907 410.944C797.097 411.358 792.41 412.338 787.641 413.006C783.222 413.626 778.767 413.987 774.407 414.964C769.191 416.133 764.131 417.909 759.173 419.875C755.439 421.356 751.986 423.383 748.35 425.066C744.939 426.645 741.706 428.622 738.517 430.598Z" fill="white" stroke="#444444" stroke-linecap="round"/>
<path d="M691.661 518.047C683.64 503.798 681.782 487.815 681.021 471.838C692.505 469.685 704.324 471.111 714.791 476.293C721.258 479.495 727.506 482.965 733.645 486.729C740.471 490.913 746.582 495.745 752.572 501.029C757.073 504.999 761.056 509.395 764.677 514.147C767.905 518.382 771.456 522.753 773.984 527.442C777.462 533.891 780.696 540.682 781.754 547.97C782.474 552.931 783.051 557.885 783.051 562.897C783.051 564.748 782.835 566.595 782.835 568.416C782.835 569.77 781.561 569.479 780.553 569.479C778.98 569.479 775.911 569.901 774.621 569.054C772.632 569.445 771.969 567.378 769.937 567.352C768.804 567.338 767.638 567.151 766.527 566.95C761.287 566.006 756.071 564.66 750.891 563.452C746.421 562.41 742.643 561.008 738.521 559.103C735.205 557.571 731.709 556.361 728.577 554.47C713.714 545.496 700.161 533.146 691.661 518.047Z" fill="white" stroke="#444444" stroke-linecap="round"/>
<path d="M778.217 502.636C774.752 496.265 771.704 489.439 769.857 482.438C775.993 481.604 781.949 481.266 788.137 481.741C798.166 482.511 808.133 482.937 817.776 486.008C835.681 491.708 852.999 502.537 862.283 519.181C867.064 527.754 867.504 537.136 870.329 546.269C870.869 548.016 871.187 549.883 871.624 551.602C865.821 551.56 860.039 551.358 854.236 551.197C849.69 551.071 845.2 550.844 840.689 550.204C834.969 549.393 829.335 547.568 823.876 545.76C820.014 544.481 816.746 542.56 813.272 540.517L813.271 540.517L813.164 540.454C810.185 538.703 807.311 537.038 804.565 534.923C799.112 530.722 794.21 526.111 789.77 520.883C785.132 515.422 781.615 508.884 778.217 502.636Z" fill="white"/>
<path d="M769.811 482.262C771.653 489.324 774.723 496.212 778.217 502.636C781.615 508.884 785.132 515.422 789.77 520.883C794.21 526.111 799.112 530.722 804.565 534.923C807.311 537.038 810.185 538.703 813.164 540.454L813.272 540.517C816.746 542.56 820.014 544.481 823.876 545.76C829.335 547.568 834.969 549.393 840.689 550.204C845.2 550.844 849.69 551.071 854.236 551.197C860.76 551.378 867.258 551.61 873.787 551.61M769.595 482.474C775.823 481.613 781.861 481.26 788.137 481.741C798.166 482.511 808.133 482.937 817.776 486.008C835.681 491.708 852.999 502.537 862.283 519.181C867.064 527.754 867.504 537.136 870.329 546.269C870.87 548.019 871.188 549.888 871.626 551.61" stroke="#444444" stroke-linecap="round"/>
<path d="M630.576 539.124C616.235 540.932 601.618 548.262 588.88 554.748C600.899 566.576 614.913 576.275 630.12 583.773C644.011 590.624 659.213 597.567 675.106 597.033C682.905 596.771 689.782 594.828 697.179 592.59C702.892 590.861 707.9 588.185 713.344 585.83C717.309 584.115 720.982 581.831 724.873 579.944C726.52 579.145 729.303 578.931 731.117 578.573C729.558 576.943 727.883 575.441 726.289 573.846C724.735 572.291 723.497 570.462 721.858 568.989C718.173 565.676 714.246 562.58 710.341 559.523C704.564 554.998 698.165 551.6 691.655 548.213C685.413 544.965 678.776 542.064 671.984 540.129C665.457 538.27 658.073 537.555 651.304 537.186C644.447 536.813 637.352 538.27 630.576 539.124Z" fill="white" stroke="#444444" stroke-linecap="round"/>
<path d="M508.124 592.112C502.105 583.075 497.421 573.467 492.437 563.846C504.56 560.982 517.696 559.816 530.104 561.294C541.485 562.649 552.535 565.803 563.015 570.457C573.912 575.296 583.919 582.762 592.536 590.97C602.368 600.335 610.87 611.149 619.334 621.74C626.371 630.545 632.484 639.748 637.247 649.982C639.565 654.961 642.146 660.855 643.844 666.096C643.782 666.314 643.214 666.217 643.057 666.217C637.513 666.217 632.107 668.11 626.62 668.842C608.232 671.297 588.182 664.878 571.984 657.006C563.469 652.868 556.417 646.551 549.471 640.211C542.133 633.514 535.108 626.519 528.555 619.042C521.109 610.545 514.387 601.516 508.124 592.112Z" fill="white"/>
<path d="M643.844 666.096C643.782 666.314 643.214 666.217 643.057 666.217C637.513 666.217 632.107 668.11 626.62 668.842C608.232 671.297 588.182 664.878 571.984 657.006C563.469 652.868 556.417 646.551 549.471 640.211C542.133 633.514 535.108 626.519 528.555 619.042C521.109 610.545 514.387 601.516 508.124 592.112C502.105 583.075 497.421 573.467 492.437 563.846C504.56 560.982 517.696 559.816 530.104 561.294C541.485 562.649 552.535 565.803 563.015 570.457C573.912 575.296 583.919 582.762 592.536 590.97C602.368 600.335 610.87 611.149 619.334 621.74C626.371 630.545 632.484 639.748 637.247 649.982C639.565 654.961 642.146 660.855 643.844 666.096ZM643.844 666.096C643.9 665.898 643.887 666.229 643.844 666.096Z" stroke="#444444" stroke-linecap="round"/>
<path d="M498.71 84.4374C506.921 77.0469 517.805 71.4993 527.472 66.1652C528.555 70.427 531.154 74.3891 532.367 78.685C534.418 85.952 534.375 93.7182 535.32 101.157C536.387 109.558 536.048 118.965 535.279 127.391C534.414 136.88 533.295 145.705 529.879 154.7C527.118 161.97 524.197 169.789 519.665 176.197C513.66 184.687 507.458 192.439 500.389 200.102C493.962 207.069 487.164 213.687 480.183 220.106C476.856 223.165 472.999 225.534 469.443 228.306C466.81 230.359 464.615 232.516 461.656 234.119C461.03 234.458 456.114 238.418 456.114 236.169C456.114 234.175 454.336 231.465 453.646 229.541C452.853 227.329 452.815 224.78 452.311 222.494C451.566 219.112 450.437 215.833 449.722 212.443C447.771 203.189 447.438 193.617 447.963 184.198C448.391 176.527 449.125 168.55 451.078 161.089C452.29 156.456 454.263 152.094 455.548 147.495C459.122 134.699 465.587 121.648 473.873 111.069C481.399 101.461 489.607 92.6317 498.71 84.4374Z" fill="white" stroke="#444444" stroke-linecap="round"/>
<path d="M383.83 85.5283C377.813 62.862 385.136 41.3948 395.48 21.2601C395.962 24.1043 400.062 26.5123 402.047 28.3634C407.067 33.0438 412.325 37.4391 417.171 42.303C421.909 47.0587 425.826 52.6637 429.165 58.4502C432.246 63.7896 435.2 69.8017 437.469 75.5231C442.042 87.0564 444.541 100.562 442.95 112.909C442.004 120.258 440.022 127.004 437.885 134.059C436.431 138.859 435.018 144.123 434.882 149.156C434.794 152.401 433.807 152.673 431.607 151.185C428.582 149.138 426.061 145.841 423.177 143.494C419.092 140.17 414.916 136.295 411.328 132.474C404.82 125.545 398.452 118.578 393.924 110.203C389.567 102.142 386.18 94.3804 383.83 85.5283Z" fill="white" stroke="#444444" stroke-linecap="round"/>
<path d="M280.625 39.1062C276.132 26.8873 277.253 13.8217 279.272 1.10803C301.055 7.18566 323.847 15.6065 339.408 32.5928C349.767 43.9007 355.517 57.163 361.969 70.7923C364.253 75.6167 365.842 80.7222 367.849 85.6605C369.505 89.7339 371.034 94.0684 371.622 98.4401C372.016 101.364 372.065 104.478 372.251 107.429C372.386 109.555 371.666 112.776 372.66 114.732C371.351 114.732 366.462 112.205 365.208 111.885C361.342 110.898 357.832 109.302 354.14 107.831C348.961 105.768 343.644 104.195 338.701 101.581C333.046 98.5898 327.559 95.323 322.46 91.4776C310.125 82.1737 298.633 70.2975 289.759 57.7185C285.813 52.1247 282.969 45.4832 280.625 39.1062Z" fill="white" stroke="#444444" stroke-linecap="round"/>
<path d="M267.945 167.18C260.897 156.861 258.009 146.506 255.147 134.226C262.894 132.882 270.393 132.066 278.211 133.112C281.644 133.571 285.094 133.801 288.525 134.241C291.777 134.659 295.032 135.086 298.225 135.835C303.051 136.967 307.292 139.253 311.966 140.786C320.875 143.708 329.316 148.189 336.822 153.782C339.65 155.889 342.517 157.915 345.076 160.342C347.568 162.705 350.692 164.501 352.591 167.397C354.128 169.741 356.176 171.59 357.858 173.818C359.768 176.348 361.445 179.126 362.999 181.878C364.358 184.286 366.127 186.414 367.275 188.934C368.11 190.764 368.815 192.398 369.979 194.039C371.438 196.095 372 199.068 373.595 200.924L373.664 201.004C374.501 201.977 375.702 203.372 375.702 204.684C369.764 205.518 362.47 208.478 356.458 207.964C346.116 207.079 336.054 206.106 325.817 204.235C319.61 203.101 312.838 202.317 306.903 200.135C300.52 197.788 293.798 193.965 288.572 189.692C284.425 186.301 280.979 182.311 277.346 178.413C274.037 174.862 270.68 171.185 267.945 167.18Z" fill="white" stroke="#444444" stroke-linecap="round"/>
<path d="M207.511 105.789C199.386 101.217 192.564 96.9689 188.362 88.5537C207.706 76.4089 229.926 65.8362 253.387 69.9104C264.593 71.8565 275.53 74.7109 285.365 80.3847C289.278 82.6422 292.495 85.6786 296.339 87.9967C299.23 89.7403 300.576 92.8363 303.194 94.8971C305.249 96.5154 306.909 97.3884 307.784 99.9717C307.092 100.653 306.639 101.589 305.898 102.2C303.963 103.794 302.061 104.21 299.861 105.263C296.694 106.778 293.805 108.903 290.616 110.338C286.263 112.296 281.394 112.66 276.75 113.556C270.93 114.678 265.388 115.888 259.424 116.186C252.698 116.523 245.987 115.569 239.3 115.01C234.607 114.618 229.934 113.868 225.308 112.999C218.831 111.781 213.204 108.993 207.511 105.789Z" fill="white" stroke="#444444" stroke-linecap="round"/>
<path d="M313.774 279.721C300.995 270.699 295.826 258.571 289.673 244.647C299.076 243.535 308.601 242.618 318.066 243.595C321.401 243.939 324.728 244.32 328.065 244.647C336.493 245.472 344.27 248.678 352.245 251.269C358.87 253.421 365.93 256.619 371.426 260.892C377.685 265.759 382.729 271.841 387.871 277.787C392.064 282.635 396.154 288.24 399.049 293.939C399.533 294.892 400.323 296.765 400.323 297.838C394.924 297.838 387.511 300.537 382.211 301.319C371.05 302.967 360.614 301.726 349.95 298.148C346.713 297.061 343.374 296.107 340.202 294.852C336.614 293.433 333.269 291.332 329.826 289.607C324.198 286.789 318.905 283.343 313.774 279.721Z" fill="white" stroke="#444444" stroke-linecap="round"/>
<path d="M213.296 249.598C216.532 232.871 224.144 213.607 233.64 199.253C242.776 208.889 253.138 217.856 260.194 229.175C266.113 238.669 270.811 248.944 273.856 259.685C276.849 270.241 277.733 281.315 277.284 292.237C276.925 300.977 274.921 308.833 272.316 317.116C270.961 321.424 269.715 325.503 267.914 329.663C266.871 332.071 265.138 334.143 264.203 336.579C263.595 338.165 261.939 340.705 261.939 342.396C261.396 343.465 258.54 338.932 258.072 338.621C253.607 335.658 248.983 332.86 244.992 329.277C236.317 321.489 228.491 311.977 223.28 301.582C215.21 285.486 209.806 267.641 213.296 249.598Z" fill="white" stroke="#444444" stroke-linecap="round"/>
<path d="M315.479 373.277C311.109 357.724 311.337 340.057 310.731 324.062C341.132 326.455 368.848 342.195 389.057 364.319C397.443 373.501 403.091 385.126 407.483 396.593C411.388 406.792 412.139 418.528 412.734 429.316C413.111 436.155 411.799 442.71 411.492 449.506C411.353 452.574 410.627 455.506 410.627 458.588C410.627 461.091 410.344 468.595 410.344 466.092C410.139 466.494 409.315 465.825 408.58 465.179C405.115 463.313 400.297 460.444 397.201 459.578C383.907 455.86 371.218 450.364 360.129 442.11C344.645 430.586 331.885 416.33 324.157 398.697C320.59 390.557 317.876 381.809 315.479 373.277Z" fill="white"/>
<path d="M410.344 466.092C406.954 464.442 400.87 460.604 397.201 459.578C383.907 455.86 371.218 450.364 360.129 442.11C344.645 430.586 331.885 416.33 324.157 398.697C320.59 390.557 317.876 381.809 315.479 373.277C311.109 357.724 311.337 340.057 310.731 324.062C341.132 326.455 368.848 342.195 389.057 364.319C397.443 373.501 403.091 385.126 407.483 396.593C411.388 406.792 412.139 418.528 412.734 429.316C413.111 436.155 411.799 442.71 411.492 449.506C411.353 452.574 410.627 455.506 410.627 458.588C410.627 461.091 410.344 468.595 410.344 466.092ZM410.344 466.092L407.46 464.254C407.996 464.516 410.007 466.754 410.344 466.092Z" stroke="#444444" stroke-linecap="round"/>
<path d="M141.911 342.412C132.881 327.692 127.578 311.07 121.929 294.914C132.279 294.44 143.342 294.983 153.435 297.575C162.738 299.965 171.948 302.481 180.76 306.301C191.522 310.968 201.585 317.085 211.197 323.723C221.494 330.833 232.049 337.498 240.738 346.574C248.805 355 253.929 366.58 259.337 376.697C261.701 381.119 264.456 385.758 265.94 390.606C266.948 393.896 267.748 397.39 268.629 400.725C269.096 402.492 269.313 404.102 270.075 405.769C270.392 406.462 271.349 406.665 271.349 407.424H267.528C264.596 407.424 261.578 407.095 258.645 406.929C252.51 406.58 246.108 406.58 240.157 404.948C235.348 403.63 230.714 401.775 225.944 400.338C220.787 398.784 215.644 397.393 210.663 395.325C200.614 391.153 190.792 386.414 181.499 380.782C170.746 374.265 160.306 366.964 152.398 357.172C148.626 352.502 145.045 347.521 141.911 342.412Z" fill="white" stroke="#444444" stroke-linecap="round"/>
<path d="M147.084 381.826C155.183 387.988 162.485 394.451 169.471 401.784C164.786 405.53 158.504 409.5 153.058 412.088C146.734 415.095 141.186 418.613 134.38 420.598C115.064 426.232 95.4851 422.783 76.2725 418.556C66.9472 416.504 58.2941 411.564 50.3944 406.395C44.4835 402.527 38.8946 398.232 33.8866 393.275C31.8776 391.286 27.1117 388.25 28.9814 385.183C29.9593 383.579 30.6541 382.027 32.11 380.758C34.0343 379.081 36.3961 377.93 38.3987 376.333C40.983 374.273 43.7906 373.706 46.9199 372.79C51.9972 371.305 56.4432 368.29 61.6355 367.004C66.9736 365.682 72.5145 365.268 77.9233 364.297C83.9574 363.213 90.0164 362.022 96.1763 362.022C104.926 362.022 113.808 363.754 122.07 366.54C131.375 369.677 139.405 375.984 147.084 381.826Z" fill="white" stroke="#444444" stroke-linecap="round"/>
<path d="M147.981 452.441C163.774 446.276 173.183 444.428 189.599 440.25C189.599 441.294 189.321 442.094 189.01 443.092C187.989 446.366 187.494 449.795 186.573 453.101C183.346 464.679 179.834 477.631 171.591 486.862C160.247 499.565 145.435 509.936 130.128 517.575C112.271 526.487 101.239 528.964 82.1398 534.783C82.1398 533.158 82.5779 531.553 82.8605 529.961C83.9432 523.863 84.8689 517.761 87.1852 511.994C91.0878 502.276 95.6503 493.082 101.319 484.302C105.793 477.371 110.879 472.184 117.928 467.719C127.203 461.843 137.847 456.397 147.981 452.441Z" fill="white" stroke="#444444" stroke-linecap="round"/>
<path d="M84.165 434.368C94.4976 434.404 110.428 435.945 119.649 440.361C118.67 440.361 115.597 442.724 115.121 443.449C113.254 446.297 112.628 449.668 110.53 452.408C100.212 465.881 86.439 476.515 70.4242 482.608C54.3022 488.742 36.3071 489.116 19.3755 486.414C14.8225 485.688 10.6563 484.237 6.49934 482.33C4.85229 481.574 2.22462 481.102 0.933816 479.761C0.227319 479.028 3.29589 476.074 3.63796 475.584C5.81251 472.471 7.58245 469.091 9.73802 465.961C13.3348 460.737 18.9718 456.127 23.9505 452.253C34.6426 443.933 47.642 438.999 60.8496 436.07C68.5791 434.355 76.2922 434.34 84.165 434.368Z" fill="white" stroke="#444444" stroke-linecap="round"/>
<path d="M114.846 559.046C113.042 560.07 112.603 561.798 111.953 563.657C114.539 566.823 118.514 570.759 121.795 573.203C124.307 575.073 126.43 577.422 129.184 578.974C134.981 582.238 141.12 586.1 147.532 587.993C154.381 590.016 160.819 593.708 167.891 595.002C174.322 596.179 180.897 597.208 187.418 597.756C195.579 598.442 203.618 597.363 211.739 596.658C215.43 596.337 219.101 595.989 222.603 594.724C226.635 593.266 230.402 591.221 234.395 589.68C240.035 587.503 249.485 581.529 254.883 578.873C252.85 576.872 251.896 574.46 249.708 572.63C244.683 568.431 240.057 563.81 234.678 560.006C231.382 557.675 227.813 555.574 224.427 553.353C221.515 551.443 218.635 550.28 215.528 548.773C208.728 545.475 202.365 543.095 194.886 541.641C186.054 539.924 177.203 538.557 168.19 539.444C160.088 540.241 152.203 542.325 144.34 544.286C140.425 545.263 137.119 547.27 133.492 548.897C130.024 550.452 126.519 551.859 123.21 553.739C120.332 555.375 117.729 557.409 114.846 559.046Z" fill="white" stroke="#444444" stroke-linecap="round"/>
<path d="M196.293 484.101C190.84 485.583 186.398 488.289 181.673 491.325C190.213 511.145 207.641 527.243 225.976 538.376C238.523 545.994 252.235 549.736 266.711 551.697C277.644 553.177 289.388 555.607 300.45 554.683C308.398 554.019 316.521 552.236 324.3 550.475C330.67 549.033 336.348 545.624 342.758 544.286C346.138 543.58 349.455 542.794 352.82 541.996C354.033 541.708 355.002 541.06 356.173 540.872C353.967 537.866 350.653 535.336 348.999 531.986C347.462 528.87 345.01 526.916 342.758 524.358C339.87 521.08 337.033 517.759 334.063 514.549C326.804 506.702 318.492 499.476 309.553 493.539C299.716 487.005 288.501 482.42 277.229 478.903C267.332 475.815 255.952 475.595 245.629 475.396L245.33 475.391C239.645 475.281 233.916 475.559 228.272 476.211C222.2 476.911 216.325 477.448 210.522 479.429C205.775 481.049 201.144 482.783 196.293 484.101Z" fill="white"/>
<path d="M181.358 491.528C186.201 488.41 190.719 485.616 196.293 484.101C201.144 482.783 205.775 481.049 210.522 479.429C216.325 477.448 222.2 476.911 228.272 476.211C233.916 475.559 239.645 475.281 245.33 475.391L245.629 475.396C255.952 475.595 267.332 475.815 277.229 478.903C288.501 482.42 299.716 487.005 309.553 493.539C318.492 499.476 326.804 506.702 334.063 514.549C337.033 517.759 339.87 521.08 342.758 524.358C345.01 526.916 347.462 528.87 348.999 531.986C350.745 535.522 354.34 538.145 356.53 541.377M181.641 491.249C190.169 511.104 207.618 527.228 225.976 538.376C238.523 545.994 252.235 549.736 266.711 551.697C277.644 553.177 289.388 555.607 300.45 554.683C308.398 554.019 316.521 552.236 324.3 550.475C330.67 549.033 336.348 545.624 342.758 544.286C346.138 543.58 349.455 542.794 352.82 541.996C354.246 541.658 355.335 540.82 356.813 540.82" stroke="#444444" stroke-linecap="round"/>
<path d="M319.434 599.473C325.778 598.789 333.281 599.581 339.62 600.139C339.62 600.783 339.252 601.228 338.929 601.779C337.127 604.844 335.485 608.023 334.338 611.387C332.973 615.39 332.12 619.502 330.439 623.408C328.066 628.922 325.577 634.437 322.987 639.854C316.093 654.27 307.418 667.432 297.235 679.787C287.71 691.342 276.378 701.317 262.93 708.285C249.227 715.386 233.942 718.521 218.641 719.734C210.277 720.398 201.927 719.611 193.549 719.611C193.132 719.611 189.664 719.943 189.635 719.332C189.524 717.058 190.236 714.772 190.767 712.587C194.202 698.423 198.413 684.312 203.643 670.705C207.981 659.418 213.677 649.169 222.084 640.303C227.605 634.481 233.926 629.067 240.73 624.739C254.081 616.247 269.133 609.779 284.437 605.554C292.126 603.431 300.172 602.666 308.051 601.469C311.854 600.892 315.61 599.886 319.434 599.473Z" fill="white" stroke="#444444" stroke-linecap="round"/>
<path d="M143.224 608.246C162.418 607.69 178.617 612.66 196.426 619.076C191.622 624.854 187.014 630.743 181.868 636.249C173.538 645.162 165.09 653.622 153.82 658.869C144.96 662.994 135.702 664.947 125.961 665.398C112.358 666.027 98.8847 664.658 85.4305 662.86C85.1857 662.828 74.8026 661.54 74.8026 661.22C74.8026 660.202 76.7331 658.064 77.208 657.291C80.2185 652.389 83.3773 647.513 86.6254 642.763C93.908 632.111 103.869 623.594 115.066 617.095C123.881 611.98 132.917 608.544 143.224 608.246Z" fill="white" stroke="#444444" stroke-linecap="round"/>
</g>
</svg>
