<svg width="378" height="819" viewBox="0 0 378 819" fill="none" xmlns="http://www.w3.org/2000/svg">
<g id="design-freepik">
<rect x="14.5" y="85.5" width="345" height="206" rx="9.5" fill="white" stroke="black" stroke-width="5"/>
<rect x="74.5" y="291.5" width="234" height="394" rx="16.5" fill="white" stroke="black" stroke-width="5"/>
<rect x="65.5" y="142.5" width="55" height="53" rx="26.5" fill="white" stroke="black" stroke-width="5"/>
<rect x="253.5" y="142.5" width="55" height="53" rx="26.5" fill="white" stroke="black" stroke-width="5"/>
<rect x="261.5" y="158.5" width="20" height="21" rx="10" fill="white" stroke="black" stroke-width="5"/>
<rect x="89.5" y="158.5" width="20" height="21" rx="10" fill="white" stroke="black" stroke-width="5"/>
<path d="M123.5 229.5L161.5 261.5H210L248 229.5" stroke="black" stroke-width="5"/>
<path d="M310 339L375 465.5M76 339L3 455M143.5 690.5V816H108.5M239 686.5V715.5V816H287M69.5 85L46 9.5L22.5 3M294.5 85L310 3H335" stroke="black" stroke-width="5"/>
</g>
</svg>
