<?xml version="1.0" encoding="utf-8"?>
<!DOCTYPE svg PUBLIC "-//W3C//DTD SVG 20010904//EN"
 "http://www.w3.org/TR/2001/REC-SVG-20010904/DTD/svg10.dtd">
<svg version="1.1" id="Layer_1" xmlns="http://www.w3.org/2000/svg" xmlns:xlink="http://www.w3.org/1999/xlink" x="0px" y="0px"
	 viewBox="31 32 722.6 722.1" enable-background="new 31 32 722.6 722.1" xml:space="preserve">
<g id="design-freepik" transform="translate(0.000000,1220.000000) scale(0.100000,-0.100000)">
<path d="M4572 11618 c-19 -23 -73 -221 -78 -288 -12 -138 -31 -100 -41 78 -4
81 -9 112 -19 112 -18 0 -73 -148 -91 -245 -11 -57 -14 -120 -11 -218 2 -76 1
-132 -3 -125 -12 22 -39 165 -39 208 0 29 -4 40 -12 37 -14 -4 -16 -53 -5
-187 3 -47 7 -125 9 -175 l2 -90 -134 1 c-154 2 -186 11 -201 54 -13 37 -39
40 -39 5 0 -14 -3 -25 -6 -25 -9 0 -138 62 -144 69 -3 3 -23 19 -44 35 -119
89 -198 225 -213 367 -3 36 -11 59 -18 59 -7 0 -27 -30 -45 -67 -77 -156 -112
-344 -91 -483 13 -86 42 -179 67 -218 14 -22 14 -25 -2 -43 -25 -28 -235 -129
-404 -194 l-145 -56 -110 11 c-184 19 -269 75 -331 219 -15 34 -32 60 -38 58
-20 -6 -37 -146 -33 -257 5 -111 21 -170 63 -232 13 -21 21 -38 17 -38 -10 0
-86 73 -130 123 -33 38 -53 47 -53 24 0 -42 89 -215 149 -291 18 -22 31 -51
31 -66 0 -37 43 -165 74 -220 14 -25 41 -62 60 -84 34 -36 39 -56 14 -56 -5 0
-67 -24 -137 -54 -159 -67 -241 -86 -375 -86 -59 0 -106 -4 -106 -8 0 -5 11
-59 24 -119 28 -126 73 -248 115 -315 71 -112 208 -201 373 -243 51 -12 94
-27 96 -33 7 -21 -58 -129 -105 -173 -65 -63 -187 -142 -289 -189 -46 -22 -84
-43 -84 -48 0 -13 25 -22 58 -22 14 0 57 -16 95 -36 38 -20 109 -50 158 -68
65 -23 86 -35 78 -43 -23 -23 -12 -29 164 -80 24 -6 22 -10 -59 -127 -77 -111
-143 -164 -234 -187 -30 -8 -50 -18 -50 -27 0 -40 116 -164 185 -196 52 -25
143 -39 213 -32 l62 5 -15 -28 c-17 -34 -102 -111 -121 -111 -8 0 -14 -6 -14
-14 0 -10 27 -15 108 -20 122 -8 224 0 265 21 16 8 30 13 32 11 1 -2 17 -26
34 -54 36 -60 40 -110 16 -226 -20 -93 -56 -168 -106 -216 -21 -22 -39 -44
-39 -49 0 -17 36 -23 167 -30 120 -6 123 -6 218 28 l97 34 20 -25 c19 -23 20
-36 16 -180 -4 -167 -15 -210 -65 -262 -33 -34 -23 -48 36 -48 54 0 97 15 172
61 27 17 52 29 54 27 7 -6 -13 -116 -27 -153 -25 -69 -63 -142 -90 -176 -51
-67 -35 -75 59 -29 l61 30 79 -14 c43 -8 146 -18 229 -22 l152 -6 42 -37 42
-36 15 -130 c22 -189 22 -640 0 -762 -15 -82 -43 -173 -53 -173 -2 0 -45 20
-96 44 -204 96 -402 141 -588 134 -99 -4 -125 -9 -178 -33 -108 -48 -137 -89
-356 -485 -155 -280 -144 -266 -256 -311 l-95 -39 -130 6 c-222 11 -298 -21
-367 -153 -41 -78 -48 -100 -87 -283 -36 -167 -44 -186 -73 -193 -92 -20 -386
-102 -461 -128 -115 -39 -185 -74 -262 -131 -118 -87 -152 -171 -189 -460 -30
-233 -66 -405 -142 -685 -31 -115 -78 -288 -105 -386 -113 -416 -140 -579
-146 -873 -5 -204 -3 -247 16 -360 12 -71 28 -152 35 -181 13 -49 13 -56 -10
-112 -33 -81 -40 -121 -23 -121 8 0 23 30 37 73 38 119 93 195 232 325 181
169 550 539 550 551 0 30 -41 -4 -192 -161 -92 -95 -231 -231 -311 -303 -79
-72 -166 -158 -193 -192 -27 -35 -52 -63 -55 -63 -7 0 -34 133 -48 235 -46
335 0 689 168 1290 142 507 179 673 216 959 14 106 34 219 45 252 66 193 220
282 700 404 229 58 420 133 523 206 26 19 54 34 63 34 24 0 345 -73 504 -114
378 -98 829 -238 883 -274 36 -24 199 -207 276 -310 20 -27 61 -78 91 -112 79
-91 156 -187 196 -248 34 -51 47 -61 58 -43 6 10 -129 194 -214 291 -31 36
-94 112 -140 170 -46 58 -111 136 -144 174 -34 39 -53 67 -42 63 10 -4 100
-32 200 -63 238 -73 537 -172 555 -183 15 -10 63 -137 166 -441 35 -102 72
-209 84 -238 11 -29 46 -132 77 -229 l55 -177 -38 -36 c-49 -45 -340 -300
-417 -364 l-58 -50 5 -47 c3 -26 13 -62 23 -80 l16 -33 -123 -121 c-68 -66
-194 -183 -279 -260 -251 -226 -315 -283 -360 -323 -24 -20 -143 -134 -264
-253 -122 -119 -242 -234 -268 -255 -52 -43 -58 -54 -28 -54 20 0 102 75 395
362 88 86 171 166 185 178 14 12 39 34 55 49 30 27 82 73 235 210 158 142 205
185 337 315 l131 129 55 -109 c90 -177 312 -507 403 -598 l53 -53 -22 -20
c-12 -10 -40 -32 -62 -48 -120 -88 -465 -391 -465 -409 0 -14 33 -4 54 17 86
85 350 309 462 393 22 16 45 35 53 42 7 7 20 11 28 8 8 -3 17 -6 19 -6 29 0
-110 -126 -303 -276 -128 -100 -203 -165 -203 -177 0 -19 40 -3 70 28 19 20
69 61 110 92 64 49 221 176 256 208 7 5 40 37 75 71 35 34 78 68 94 77 17 8
55 38 85 65 77 69 260 211 436 337 181 131 278 211 322 269 16 21 22 42 22 78
0 33 6 54 18 66 24 25 211 184 312 267 47 38 173 146 280 240 193 168 381 331
429 370 14 11 43 36 65 56 23 20 102 83 176 141 74 57 165 127 202 156 38 29
123 94 190 145 68 50 132 99 143 109 92 75 190 148 300 223 264 179 371 254
428 301 9 8 21 14 25 14 5 0 85 -50 178 -112 127 -83 190 -133 255 -198 175
-179 220 -327 274 -910 28 -305 32 -335 69 -534 41 -220 58 -430 60 -736 1
-200 -3 -291 -13 -335 -7 -33 -15 -64 -18 -68 -3 -4 -38 24 -79 63 -76 72
-118 99 -132 86 -4 -5 9 -20 28 -34 61 -45 167 -157 202 -213 47 -74 82 -159
103 -251 12 -49 24 -78 32 -78 17 0 17 2 -11 112 -22 85 -47 145 -105 246 -17
29 -17 36 -4 74 30 88 37 244 25 541 -13 291 -27 432 -62 622 -32 167 -37 210
-70 542 -49 509 -87 660 -206 814 -64 83 -162 169 -288 252 -61 41 -172 114
-246 163 -79 52 -166 120 -211 164 l-76 75 -7 68 c-13 134 -86 267 -216 398
-57 57 -279 246 -396 337 -60 46 -141 81 -206 88 l-56 6 -91 152 c-165 277
-230 336 -365 336 -94 0 -359 -78 -612 -181 -67 -27 -126 -49 -131 -49 -24 0
-52 331 -52 605 0 83 6 240 14 350 l14 200 79 75 c83 78 172 175 208 224 l21
29 51 -36 c57 -39 144 -71 264 -97 81 -17 102 -12 75 18 -49 53 -127 257 -134
350 -6 71 -9 69 80 46 92 -24 244 -16 322 16 33 14 61 32 63 40 1 8 -11 24
-28 35 -17 11 -42 44 -57 75 -25 50 -27 65 -28 175 0 111 2 124 27 175 29 58
80 102 186 163 69 38 81 64 55 109 -11 18 -33 65 -48 104 l-27 71 33 94 c20
58 34 122 37 167 4 63 7 72 21 66 9 -4 54 -18 101 -31 92 -25 240 -29 247 -6
2 6 -21 22 -51 36 -65 30 -94 69 -132 177 -34 99 -46 222 -34 352 18 191 19
192 56 217 34 23 164 153 225 224 37 43 30 65 -15 47 -56 -21 -216 -3 -216 24
0 16 51 93 87 132 41 45 130 112 182 139 25 12 85 35 134 50 67 21 87 31 87
45 0 28 -104 58 -207 62 -29 0 -53 5 -53 9 0 4 13 17 29 28 73 52 202 258 187
297 -5 12 -17 6 -59 -30 -30 -25 -57 -43 -60 -39 -4 3 -3 11 1 17 12 16 29 83
37 146 4 30 17 70 29 90 31 48 50 99 42 108 -4 3 -29 -6 -56 -21 -96 -54 -170
-67 -272 -46 -99 19 -172 51 -228 99 -30 26 -93 68 -140 95 -106 60 -262 153
-269 162 -9 10 198 -6 275 -20 39 -8 85 -22 102 -33 45 -26 53 -7 12 28 -99
86 -339 218 -476 263 -32 11 -61 21 -63 22 -2 1 8 20 22 40 77 111 113 247
102 381 -7 85 -25 109 -32 41 -12 -110 -57 -191 -145 -258 -63 -47 -227 -133
-239 -125 -5 3 -9 24 -9 47 0 62 -26 213 -51 292 -29 93 -87 186 -170 270 -44
44 -86 99 -113 150 -48 88 -73 109 -63 54 28 -155 28 -151 6 -196 -11 -23 -38
-58 -61 -78 -39 -36 -149 -95 -176 -95 -8 0 -44 26 -80 57 -167 141 -397 248
-581 269 -75 8 -83 -10 -18 -40 41 -19 225 -192 215 -202 -3 -2 -30 4 -59 15
-117 42 -208 68 -404 117 -55 14 -149 41 -210 59 l-110 35 -36 57 c-49 76 -82
146 -104 213 -21 65 -28 75 -43 58z m89 -235 c67 -120 169 -231 286 -310 66
-44 201 -104 209 -92 9 16 -3 25 -73 54 -37 16 -90 43 -118 61 -54 36 -175
144 -161 144 4 0 45 -11 90 -24 44 -14 133 -38 196 -54 470 -121 683 -221 861
-404 53 -55 79 -70 79 -48 0 5 -28 39 -61 75 -69 73 -197 163 -313 220 -49 24
-77 44 -82 58 -4 12 -48 64 -98 116 -50 52 -83 91 -74 88 9 -3 36 -11 60 -17
174 -45 350 -148 500 -292 90 -86 172 -189 217 -270 24 -44 51 -63 51 -36 0
28 -147 238 -194 277 -19 16 -21 31 -3 31 29 0 136 61 176 101 l43 44 -7 -35
c-7 -38 -43 -119 -71 -162 -27 -41 -6 -48 27 -8 53 63 96 215 85 298 -3 23 -2
42 2 42 21 0 142 -300 142 -353 0 -39 12 -87 21 -87 22 0 8 118 -25 215 -19
55 -33 101 -31 103 2 2 22 -20 44 -50 23 -29 45 -57 49 -63 22 -27 63 -127 76
-185 15 -63 46 -257 46 -283 0 -7 -16 -21 -35 -30 -19 -9 -35 -24 -35 -33 0
-9 5 -14 13 -11 6 3 41 18 77 32 103 42 131 56 205 102 83 51 148 112 165 153
16 38 32 39 24 3 -18 -82 -29 -113 -59 -173 -55 -108 -57 -110 -155 -114 -82
-3 -156 -24 -172 -49 -14 -23 4 -25 49 -5 59 26 143 33 213 19 84 -17 263 -94
367 -157 51 -31 93 -58 93 -61 0 -3 -19 -2 -42 1 -152 22 -491 32 -534 16 -44
-17 -19 -24 94 -24 121 -1 123 -2 292 -101 58 -34 136 -79 173 -99 98 -54 76
-56 -29 -3 -164 83 -258 115 -353 119 -90 4 -93 -17 -4 -27 90 -9 189 -43 353
-123 272 -130 340 -156 447 -167 71 -7 184 12 207 35 6 6 16 10 24 10 26 0
-21 -61 -141 -183 -84 -86 -114 -124 -107 -131 8 -8 39 17 107 86 l96 98 -6
-51 c-4 -28 -17 -75 -31 -105 -22 -47 -32 -57 -73 -75 -77 -34 -191 -65 -283
-78 -118 -17 -130 -20 -130 -33 0 -17 141 -2 252 26 121 31 191 58 263 101 32
20 60 33 62 31 9 -9 -75 -122 -128 -173 -85 -82 -249 -195 -302 -208 -34 -9
-44 -23 -21 -32 20 -7 99 30 179 86 57 40 60 41 144 41 95 0 201 -22 166 -34
-175 -62 -257 -108 -346 -198 -37 -36 -76 -87 -89 -112 -12 -25 -25 -46 -28
-46 -12 0 -79 45 -115 76 -54 49 -118 133 -161 212 -22 39 -45 72 -53 72 -18
0 -17 -3 13 -63 115 -228 272 -349 473 -366 l75 -6 -83 -88 c-118 -124 -238
-199 -340 -213 -45 -6 -53 -4 -68 15 -19 24 -68 31 -115 18 -23 -6 -29 -2 -48
28 -12 20 -27 41 -34 48 -11 12 -71 113 -133 227 -17 30 -39 81 -49 113 -10
31 -21 57 -26 57 -14 0 -9 -58 9 -102 20 -50 132 -253 176 -318 33 -49 134
-168 181 -213 16 -15 27 -30 24 -32 -18 -18 -193 65 -272 130 -31 25 -60 45
-66 45 -21 0 -9 -19 39 -63 l50 -44 -33 -47 c-19 -25 -39 -60 -46 -76 -7 -17
-16 -30 -21 -30 -5 0 -9 1 -9 3 0 1 -20 48 -44 104 -47 108 -86 248 -86 310 0
21 -5 45 -10 53 -9 13 -12 13 -23 -1 -11 -15 -25 -6 -120 75 -164 139 -270
269 -352 433 -25 48 -45 94 -45 101 0 6 -7 12 -15 12 -8 0 -15 -5 -15 -10 0
-22 54 -138 92 -198 22 -35 38 -66 36 -68 -2 -2 -39 27 -82 65 -73 64 -129
125 -168 182 -14 21 -17 22 -23 7 -15 -38 124 -187 275 -294 41 -29 94 -76
118 -103 24 -28 76 -79 115 -112 114 -98 139 -121 134 -125 -13 -13 -208 29
-267 58 -62 29 -180 105 -238 151 -84 67 -222 219 -257 283 -60 109 -66 117
-77 106 -7 -7 5 -38 37 -99 132 -243 258 -434 348 -525 27 -27 47 -52 44 -54
-8 -9 -162 113 -224 177 -244 255 -420 557 -478 824 -17 79 -29 105 -41 92
-19 -19 44 -240 108 -378 l40 -86 -27 -99 c-15 -55 -40 -155 -56 -224 -16 -69
-40 -168 -53 -220 -14 -52 -28 -128 -31 -168 -4 -40 -9 -71 -11 -69 -6 6 -64
216 -64 232 0 8 18 60 41 116 22 56 37 109 34 117 -3 9 -9 12 -14 6 -10 -10
-141 -345 -165 -419 -32 -100 -56 -232 -56 -310 0 -84 -7 -87 -33 -15 -48 136
-84 333 -92 515 -7 148 -13 185 -27 185 -15 0 -3 -283 17 -405 32 -196 94
-388 160 -491 19 -30 35 -57 35 -60 0 -11 -55 7 -100 33 -103 60 -276 259
-359 414 -78 145 -146 350 -153 463 -4 58 -28 60 -28 2 0 -85 47 -253 109
-390 17 -38 30 -71 27 -73 -5 -5 -88 158 -120 235 -35 87 -66 205 -66 249 0
38 22 232 41 363 6 41 26 121 45 179 37 115 40 131 22 131 -26 -1 -87 -228
-107 -396 -32 -265 -33 -276 -21 -398 6 -66 9 -120 7 -123 -2 -2 -16 29 -32
69 -118 312 -131 377 -122 623 5 140 11 190 34 280 27 105 29 110 56 113 15 2
27 9 27 16 0 9 -23 15 -72 19 -40 4 -93 13 -118 21 -55 17 -226 88 -266 110
-29 16 -28 16 31 9 71 -9 358 -8 421 2 29 4 44 11 44 21 0 12 -12 13 -62 9
-35 -3 -103 -7 -153 -8 l-89 -3 -40 35 c-124 113 -298 436 -356 659 -25 101
-25 112 2 76 38 -51 121 -135 180 -180 178 -138 757 -469 780 -446 12 12 1 19
-142 94 -127 67 -156 83 -287 160 -87 51 -105 67 -122 102 -28 59 -70 276 -77
398 l-5 103 38 -71 c107 -196 253 -324 531 -463 176 -89 342 -143 342 -112 0
5 -44 24 -97 41 -109 35 -253 104 -382 182 -223 135 -327 262 -366 443 -28
134 -14 385 28 487 l14 33 7 -65 c17 -152 72 -306 148 -412 20 -29 38 -37 38
-17 0 6 -19 43 -42 82 -41 71 -41 71 -46 193 -4 104 -1 137 18 216 12 51 27
104 32 118 9 23 11 21 33 -37 13 -34 38 -88 56 -120z m-1181 -180 c4 -106 22
-197 49 -251 36 -71 110 -162 199 -247 81 -76 99 -88 107 -75 4 6 -40 57 -98
113 -98 95 -197 224 -197 255 0 8 20 -13 44 -46 65 -88 215 -194 307 -217 24
-6 28 -14 43 -88 26 -130 66 -242 136 -382 74 -147 141 -251 206 -324 24 -27
44 -51 44 -54 0 -7 -87 3 -158 19 -68 15 -131 43 -151 68 -16 19 -41 21 -41 4
1 -21 157 -128 260 -178 113 -56 206 -89 272 -97 55 -7 59 -10 47 -40 -7 -19
-13 -21 -46 -16 -95 13 -301 94 -442 172 -30 17 -57 28 -59 26 -14 -14 20 -40
125 -93 131 -67 277 -120 353 -129 57 -7 57 -7 35 -100 -8 -35 -17 -120 -20
-190 -4 -71 -8 -137 -10 -149 -10 -50 -180 -192 -288 -242 -101 -47 -267 -74
-353 -57 l-39 7 60 25 c121 51 217 116 316 213 103 102 180 213 160 233 -13
13 -8 18 -56 -63 -83 -139 -267 -288 -445 -361 -85 -34 -103 -35 -172 -9 -62
23 -68 24 -68 7 0 -17 129 -64 214 -78 66 -11 195 -7 244 7 35 10 25 -7 -31
-55 -173 -147 -447 -430 -447 -462 0 -5 -4 -8 -8 -5 -5 3 -2 53 6 111 7 59 11
109 8 113 -15 15 -27 -23 -42 -134 -20 -151 -14 -629 10 -798 9 -60 14 -112
11 -114 -3 -3 -5 -1 -5 5 0 6 -12 28 -26 49 -15 21 -47 75 -72 119 l-46 80 -4
158 c-3 134 -6 157 -19 157 -14 0 -15 -21 -10 -182 9 -253 35 -405 96 -578 16
-46 28 -86 26 -88 -4 -5 -65 89 -117 183 -84 152 -140 307 -160 443 -11 78
-19 95 -33 72 -18 -29 40 -268 92 -378 14 -29 23 -56 20 -58 -8 -8 -65 80
-103 159 -82 174 -84 410 -5 566 25 47 26 61 7 61 -18 0 -86 -162 -86 -207 0
-29 -60 -137 -116 -207 -30 -38 -54 -67 -54 -64 0 3 9 40 19 83 13 51 27 82
40 92 18 12 30 43 17 43 -3 0 -26 -14 -51 -31 -98 -66 -221 -90 -325 -64 -130
32 -127 31 -105 40 128 50 215 89 261 116 66 40 174 151 174 179 0 32 -17 23
-50 -24 -51 -76 -152 -146 -291 -203 l-76 -32 -69 18 c-86 22 -234 80 -234 92
0 5 28 9 62 9 70 0 168 27 168 47 0 16 -10 16 -47 2 -30 -12 -252 -30 -266
-22 -5 3 9 13 30 23 69 31 217 131 271 183 59 58 89 101 112 162 l16 40 59 0
c85 0 80 19 -7 27 -99 10 -212 36 -271 62 l-49 21 159 0 c155 1 213 10 213 36
0 8 -14 9 -47 3 -49 -9 -229 -10 -342 -3 -60 5 -67 8 -121 56 -57 51 -113 141
-146 235 -15 44 -54 212 -54 235 0 10 22 13 84 13 129 0 235 27 381 95 28 13
78 33 112 44 l62 21 69 -35 c38 -19 101 -45 141 -57 39 -13 71 -25 71 -28 0
-9 -183 -108 -230 -126 -25 -9 -65 -22 -90 -28 -27 -7 -45 -18 -45 -27 0 -20
347 -20 420 0 140 38 354 128 390 165 34 34 6 50 -30 16 -27 -26 -209 -104
-315 -136 -64 -19 -117 -27 -215 -31 -71 -3 -127 -3 -124 1 3 4 44 25 90 47
223 107 418 270 535 445 52 78 68 120 42 112 -7 -3 -30 -35 -52 -73 -44 -75
-221 -261 -294 -310 l-43 -29 -77 23 c-178 51 -305 140 -362 252 -24 46 -62
160 -56 167 2 2 41 -26 85 -62 45 -36 112 -81 149 -100 69 -34 296 -95 309
-83 13 13 -12 24 -107 47 -52 13 -117 32 -145 42 -101 40 -234 145 -329 262
-32 39 -106 158 -106 170 0 3 26 -14 58 -39 67 -52 189 -118 194 -104 2 5 -29
42 -68 82 -87 88 -114 150 -121 277 l-5 85 36 -73 c28 -57 58 -96 130 -168 82
-82 126 -112 126 -86 0 4 -34 38 -75 76 -91 81 -150 166 -182 259 -28 80 -27
123 1 65 29 -60 93 -125 151 -153 62 -31 211 -54 345 -55 138 0 412 39 426 61
13 21 -9 26 -53 13 -35 -11 -264 -44 -300 -44 -2 0 -3 5 -3 10 0 6 7 10 15 10
30 0 331 135 393 177 36 24 66 43 68 43 1 0 12 -16 24 -35 21 -33 50 -47 50
-24 0 6 -21 39 -46 73 -58 76 -79 124 -100 228 -26 131 -9 274 53 431 14 37
30 67 35 67 4 0 8 -3 8 -7z m712 -512 c93 -1 98 -2 102 -23 13 -65 49 -246 54
-267 4 -22 -5 -18 -84 37 -49 33 -109 78 -132 98 -46 39 -142 149 -142 163 0
4 24 4 53 0 28 -4 96 -8 149 -8z m1587 -1565 c17 -29 62 -97 101 -150 67 -92
69 -96 44 -96 -41 0 -136 -27 -208 -60 -58 -26 -66 -27 -66 -12 0 30 87 372
95 372 2 0 17 -24 34 -54z m-1276 -78 c7 -80 38 -200 66 -259 10 -21 17 -40
14 -43 -3 -2 -30 4 -61 15 -69 24 -256 49 -363 49 -43 0 -79 4 -79 8 0 14 92
78 160 112 78 38 157 97 208 155 20 23 40 41 43 39 3 -2 9 -36 12 -76z m1632
-128 c26 -27 27 -30 9 -30 -11 0 -27 13 -37 30 -10 17 -14 30 -9 30 4 0 21
-13 37 -30z m-165 -70 c0 -5 -12 -10 -27 -10 -32 0 -95 -18 -211 -61 -46 -17
-86 -29 -88 -26 -10 9 206 88 264 96 31 5 58 9 60 10 1 0 2 -3 2 -9z m276 -25
c27 -19 72 -49 101 -67 50 -31 54 -37 79 -113 15 -44 29 -86 32 -92 2 -7 -4
-13 -13 -13 -33 0 -212 187 -280 293 -17 27 -17 27 8 27 14 0 47 -16 73 -35z
m-158 -93 c112 -113 264 -207 353 -219 32 -5 40 -11 56 -46 27 -60 117 -193
181 -266 49 -56 59 -74 79 -150 38 -140 71 -310 98 -489 21 -148 37 -140 54
28 15 155 44 394 47 399 2 2 21 -11 42 -28 39 -30 40 -32 39 -93 -1 -47 5 -73
21 -104 74 -136 42 -323 -76 -441 -61 -61 -72 -82 -106 -203 -15 -52 -61 -198
-103 -324 -85 -257 -161 -416 -251 -530 -53 -68 -258 -278 -332 -341 -221
-190 -690 -465 -870 -511 -67 -17 -190 -22 -250 -10 -166 34 -466 174 -715
335 -168 108 -384 287 -475 392 -30 35 -57 66 -60 69 -3 3 -26 32 -51 65 -162
216 -247 407 -300 670 -22 108 -38 165 -46 165 -16 0 -16 -14 -2 -80 6 -28 9
-54 6 -57 -3 -3 -18 7 -34 22 -15 15 -52 37 -82 51 -65 29 -88 55 -135 148
-73 146 -184 344 -197 352 -25 15 -20 -12 13 -74 20 -37 68 -125 106 -197 108
-201 118 -214 194 -254 37 -20 85 -52 107 -71 37 -32 43 -45 65 -130 14 -52
27 -103 31 -112 10 -24 -15 -23 -64 2 -54 27 -124 102 -173 185 -23 38 -72
113 -109 165 -167 236 -259 453 -259 608 0 57 3 66 27 85 48 39 104 101 146
161 l42 59 7 -68 c9 -91 26 -159 56 -225 20 -46 25 -72 26 -155 1 -90 4 -105
30 -150 51 -91 139 -214 148 -209 14 9 9 20 -39 90 -82 120 -113 189 -113 250
0 30 5 54 10 54 6 0 10 -4 10 -10 0 -5 29 -40 64 -77 35 -38 82 -99 106 -138
23 -38 70 -99 105 -135 34 -36 67 -75 74 -87 10 -20 41 -33 41 -17 0 3 -18 36
-39 72 -72 122 -142 333 -157 475 l-6 62 25 -46 c13 -25 51 -86 83 -134 33
-51 72 -126 89 -174 17 -46 36 -86 43 -89 18 -6 15 30 -8 83 -29 67 -58 189
-76 313 -20 144 -36 459 -28 554 5 69 10 82 45 129 80 107 170 202 374 393 60
56 60 56 115 53 53 -3 376 -93 490 -136 l55 -21 43 -100 c39 -90 57 -112 75
-94 3 3 -3 20 -13 37 -17 31 -34 127 -21 127 3 0 27 -45 54 -101 26 -55 68
-128 92 -161 48 -67 193 -226 290 -320 97 -95 253 -160 271 -113 3 8 -7 31
-24 52 -16 21 -35 49 -42 62 -16 31 -14 202 5 315 15 93 74 278 91 283 6 2 16
-17 22 -44 5 -26 20 -79 32 -118 13 -38 25 -110 29 -160 5 -71 9 -90 21 -90
13 0 16 29 21 180 3 99 11 203 18 230 6 28 13 60 16 72 7 29 33 42 180 92 74
25 139 41 168 41 46 0 50 -2 125 -78z m-1695 28 c121 -18 238 -64 222 -89 -2
-4 -50 7 -107 25 -57 18 -133 40 -170 50 -38 9 -68 21 -68 26 0 4 10 6 23 4
12 -3 57 -10 100 -16z m2137 -87 c30 -8 98 -20 150 -27 l95 -12 14 -59 c43
-193 166 -442 294 -598 22 -26 37 -50 34 -53 -10 -10 -90 52 -153 118 -112
117 -273 326 -289 377 -6 21 -35 30 -35 11 0 -22 88 -153 175 -263 52 -64 89
-117 83 -117 -28 0 -133 94 -229 206 -84 98 -195 306 -223 418 -6 25 -5 28 11
21 10 -4 43 -14 73 -22z m1016 -185 c-4 -13 -10 -102 -13 -198 -4 -140 -2
-187 10 -235 29 -113 58 -176 103 -222 l43 -46 -57 6 c-31 3 -94 17 -138 31
l-82 26 -6 53 c-14 128 -28 358 -22 373 4 9 1 23 -5 30 -6 8 -17 43 -23 78
l-12 63 56 11 c31 5 74 19 96 30 52 26 58 26 50 0z m-231 -61 c24 -81 20 -94
-18 -53 -12 13 -39 42 -59 64 -21 23 -38 43 -38 46 0 10 56 11 78 2 15 -6 27
-25 37 -59z m-191 -73 c25 -14 46 -28 46 -31 0 -3 -18 -46 -40 -95 -52 -114
-59 -148 -34 -148 14 0 23 -13 34 -47 8 -26 21 -49 29 -51 15 -5 15 -2 -14
104 l-17 61 32 77 c18 42 36 78 40 81 5 3 38 0 74 -7 51 -10 66 -17 70 -33 12
-46 38 -456 33 -520 -5 -77 -14 -107 -92 -305 -81 -206 -168 -378 -251 -497
-49 -69 -120 -119 -186 -129 -38 -7 -41 -6 -34 12 8 17 76 234 76 239 0 1 33
15 73 30 91 36 149 75 175 119 34 58 162 420 162 459 0 42 -25 5 -51 -74 -63
-197 -119 -342 -144 -375 -15 -19 -43 -45 -63 -58 -46 -28 -123 -59 -130 -51
-3 3 3 31 12 63 14 42 33 73 75 118 130 139 165 320 91 476 -28 58 -38 116
-24 131 5 5 74 -24 156 -64 26 -13 38 -11 38 6 0 8 -4 15 -9 15 -25 0 -141
125 -203 219 -83 123 -84 138 -16 238 24 35 43 63 44 63 1 0 22 -12 48 -26z
m-211 -344 c5 0 7 -24 4 -57 -9 -112 -29 -288 -35 -313 l-6 -25 -3 25 c-15
103 -58 316 -74 369 -10 35 -19 67 -19 72 0 5 28 -9 62 -31 33 -22 65 -40 71
-40z m-3963 -78 c0 -25 -34 -119 -46 -128 -44 -35 -57 -186 -24 -293 11 -36
18 -65 17 -65 -3 -1 -33 -20 -72 -46 -73 -48 -224 -50 -323 -5 -52 24 -132 88
-132 106 0 5 48 7 106 6 78 -1 108 1 111 11 3 8 -10 12 -45 12 -84 0 -202 13
-202 21 0 5 7 9 16 9 29 0 141 61 173 94 17 17 61 77 99 131 l67 99 95 16 c52
9 106 22 120 28 31 13 40 14 40 4z m4380 -505 c0 -7 16 -45 35 -86 19 -40 32
-77 29 -82 -3 -5 -29 -21 -57 -35 -54 -28 -123 -78 -144 -104 -30 -39 -16 5
33 105 30 61 62 134 71 163 15 48 33 69 33 39z m-4370 -121 l37 -78 -36 -16
c-37 -16 -227 -30 -257 -18 -12 5 -8 14 24 46 22 21 46 55 53 75 10 26 24 41
56 56 24 12 48 31 55 42 11 22 11 22 21 -3 6 -14 27 -60 47 -104z m257 -415
c31 -52 76 -115 100 -139 24 -25 42 -47 40 -49 -2 -2 -37 -15 -78 -29 -67 -24
-85 -26 -186 -22 -62 2 -115 7 -118 10 -3 3 8 21 26 39 17 19 42 57 54 85 24
53 55 181 55 231 l1 28 25 -30 c14 -16 50 -72 81 -124z m3904 89 c-25 -118 -8
-245 47 -352 9 -18 -19 -6 -74 31 -58 39 -134 125 -134 152 0 8 15 26 34 41
36 29 126 156 126 179 0 7 3 10 6 6 3 -3 1 -29 -5 -57z m-149 -244 c52 -72
134 -133 191 -142 20 -4 37 -10 37 -14 0 -5 -21 -15 -47 -24 -60 -21 -202 -21
-282 0 -95 24 -105 19 -109 -44 -4 -61 23 -167 67 -264 17 -38 28 -68 25 -68
-15 0 -154 183 -173 227 -10 26 -8 39 22 109 18 43 48 121 66 172 32 89 34 92
65 93 17 0 40 4 51 9 34 15 39 12 87 -54z m-3456 -99 c34 -55 134 -270 134
-289 0 -33 -50 -76 -136 -118 -55 -27 -104 -39 -104 -25 0 3 7 16 14 28 30 45
47 140 47 262 0 67 -3 129 -7 139 -6 17 -4 18 22 12 16 -4 29 -8 30 -9z m3161
-280 c21 -41 99 -144 136 -179 34 -32 25 -34 -56 -13 -62 16 -138 53 -175 84
l-23 20 35 45 c19 25 37 55 41 66 8 25 20 18 42 -23z m-2913 -136 c33 -42 111
-127 173 -189 l115 -114 -119 7 c-65 3 -149 11 -188 17 l-69 10 37 31 c43 34
73 85 59 99 -5 5 -18 -5 -33 -26 -21 -31 -121 -106 -163 -122 -12 -4 -5 18 24
78 37 77 52 131 76 283 6 35 8 38 18 21 6 -10 38 -53 70 -95z m2431 -378 c-35
-253 -29 -800 10 -1028 8 -44 10 -81 6 -83 -24 -8 -155 -92 -221 -141 -41 -30
-145 -125 -230 -211 -206 -205 -326 -367 -453 -608 -32 -61 -63 -110 -68 -106
-5 3 -17 20 -26 37 -49 97 -231 305 -508 583 -241 241 -366 349 -482 415 -24
13 -43 27 -43 31 0 4 11 47 25 95 39 133 51 355 36 631 -7 119 -15 244 -18
276 l-6 59 45 -31 c179 -123 513 -297 673 -351 141 -47 303 -58 400 -26 187
61 514 246 775 439 41 30 78 55 83 56 4 0 5 -17 2 -37z m916 -914 c53 -29 122
-117 219 -280 38 -64 72 -123 75 -131 4 -10 -16 -18 -79 -31 -89 -18 -449
-142 -646 -222 -141 -57 -351 -159 -445 -216 -73 -44 -367 -249 -470 -328
-118 -89 -267 -245 -335 -348 -62 -95 -68 -101 -119 -118 -30 -11 -74 -32 -98
-48 -24 -16 -47 -27 -50 -23 -4 3 -21 57 -39 119 -38 132 -95 269 -153 367
-43 72 -157 200 -179 200 -22 0 -12 -20 29 -57 60 -54 123 -147 178 -264 50
-105 125 -318 116 -328 -3 -2 -22 5 -43 16 -71 40 -190 55 -200 26 -2 -9 9
-13 36 -13 56 0 126 -24 194 -66 l60 -36 81 40 c45 22 107 48 137 57 76 24
190 85 190 101 0 19 -17 17 -48 -5 -30 -21 -103 -53 -109 -48 -7 8 112 165
171 225 88 92 237 211 426 343 342 238 502 317 1035 507 241 87 320 105 422
100 71 -4 93 -10 155 -41 40 -21 116 -74 168 -118 52 -44 125 -105 162 -135
189 -154 294 -293 333 -440 24 -94 28 -90 -82 -103 -125 -16 -222 -32 -403
-70 -80 -16 -219 -44 -310 -61 -286 -54 -517 -107 -670 -156 -160 -50 -702
-217 -830 -256 -408 -121 -418 -126 -599 -301 -75 -72 -137 -135 -139 -139 -2
-5 4 -8 14 -8 9 0 69 51 133 113 110 107 188 173 196 166 2 -2 -14 -44 -34
-94 -87 -210 -157 -419 -209 -630 -26 -105 -28 -110 -57 -116 -54 -12 -99 -37
-195 -108 -52 -39 -97 -71 -100 -71 -3 0 -11 19 -18 43 -46 150 -195 586 -305
892 -20 54 -35 101 -32 103 2 2 45 -14 96 -36 l93 -40 16 -63 c19 -76 37 -112
53 -106 14 5 14 2 -13 81 -12 32 -19 60 -17 63 3 2 16 -2 31 -8 29 -14 42 -49
72 -199 25 -130 52 -210 71 -210 11 0 14 6 8 22 -4 13 -22 88 -41 168 -71 300
-113 429 -166 507 -30 44 -64 73 -85 73 -23 0 -14 -25 16 -43 17 -10 43 -41
59 -70 30 -52 86 -206 78 -214 -2 -2 -48 16 -102 40 -154 69 -345 137 -649
232 -154 48 -320 100 -370 117 -465 155 -922 282 -1336 372 -167 36 -229 44
-229 27 0 -11 25 -21 56 -21 13 0 24 -3 24 -6 0 -7 -43 -43 -52 -44 -4 0 -29
-13 -55 -28 -52 -31 -213 -96 -219 -89 -3 2 0 15 5 28 4 13 21 83 36 154 35
169 69 256 123 316 62 69 111 83 266 76 67 -3 159 -13 206 -22 47 -9 110 -20
140 -25 30 -5 96 -16 145 -24 482 -81 817 -114 1164 -116 268 -1 391 7 391 24
0 8 -105 11 -367 11 -285 0 -403 4 -523 18 -157 18 -585 78 -695 97 -33 6 -87
15 -120 21 -33 5 -76 13 -95 18 l-35 8 35 13 c129 48 470 248 470 276 0 21 -7
18 -94 -40 -45 -29 -100 -63 -123 -74 -23 -12 -44 -26 -48 -32 -3 -5 -13 -10
-21 -10 -11 0 -9 9 9 38 13 20 68 118 122 217 180 331 226 394 324 439 41 19
64 21 201 20 135 0 168 -4 255 -27 254 -67 465 -179 676 -359 95 -80 354 -339
504 -504 140 -152 203 -233 269 -347 67 -114 114 -173 129 -158 7 7 0 22 -21
46 -52 58 -51 70 17 202 124 243 249 412 461 624 172 172 256 236 435 330 154
81 478 201 670 248 66 17 167 7 216 -20z m1242 -1385 c33 -36 97 -93 141 -126
108 -81 103 -75 80 -96 -29 -27 -173 -128 -329 -232 -77 -51 -192 -133 -255
-181 -63 -49 -169 -130 -235 -180 -66 -51 -156 -120 -200 -153 -44 -34 -85
-65 -91 -71 -7 -5 -58 -46 -115 -90 -85 -65 -370 -298 -415 -340 -21 -18 -136
-119 -264 -231 -69 -60 -127 -111 -130 -114 -3 -4 -99 -85 -214 -181 -114 -95
-225 -188 -246 -206 l-37 -32 -47 68 c-46 68 -100 133 -205 247 -116 126 -229
261 -270 323 l-43 63 38 39 c22 22 63 59 93 82 91 71 226 180 231 187 3 3 75
62 160 131 85 68 164 132 175 142 11 10 91 69 179 130 87 62 230 163 319 225
88 63 251 188 363 278 112 90 220 174 241 187 23 15 74 31 133 41 52 10 219
42 370 73 235 47 419 77 494 82 11 1 43 -25 79 -65z m-1174 -166 c-23 -16
-101 -78 -173 -137 -168 -138 -246 -196 -496 -371 -308 -215 -383 -273 -680
-519 -74 -62 -167 -136 -205 -166 -39 -29 -92 -74 -118 -101 -41 -43 -49 -47
-64 -36 -10 7 -33 19 -50 27 -18 9 -33 18 -33 21 0 14 63 256 87 334 32 105
120 340 164 439 39 87 38 87 288 160 91 27 245 74 341 104 96 31 236 74 310
97 74 22 180 55 235 72 142 44 419 115 428 110 4 -2 -11 -17 -34 -34z m-1791
-1332 c35 -18 58 -43 127 -140 31 -43 87 -113 124 -155 38 -42 117 -130 176
-196 176 -196 240 -307 210 -365 -18 -34 -115 -125 -208 -193 -246 -180 -507
-379 -534 -405 -126 -123 -182 -131 -277 -44 -76 69 -311 417 -401 594 -32 62
-69 130 -82 151 -13 20 -26 57 -29 80 -6 42 -5 45 37 78 24 18 113 94 198 169
342 301 470 399 555 426 54 17 72 17 104 0z"/>
<path d="M5900 10125 c0 -43 84 -170 174 -263 53 -55 191 -163 284 -221 29
-19 51 -35 49 -37 -2 -2 -31 1 -65 6 -69 12 -182 50 -255 87 -50 25 -64 25
-54 0 6 -17 180 -89 257 -108 80 -19 185 -15 246 8 90 35 114 48 114 60 0 18
-15 16 -58 -6 -20 -10 -56 -24 -80 -30 -40 -11 -45 -10 -111 28 -212 125 -402
311 -472 464 -13 30 -29 36 -29 12z"/>
<path d="M3035 10100 c-4 -6 8 -33 25 -61 86 -134 276 -235 481 -258 81 -9
188 -2 233 15 23 9 14 30 -10 25 -10 -3 -82 -5 -159 -5 -151 -1 -188 7 -309
65 -97 47 -183 123 -223 196 -18 35 -28 40 -38 23z"/>
<path d="M4360 8257 c0 -8 32 -31 71 -53 40 -21 91 -56 115 -77 42 -37 66 -36
43 1 -14 22 -113 90 -176 121 -50 25 -53 25 -53 8z"/>
<path d="M5970 8263 c-35 -7 -118 -41 -137 -56 -9 -6 -44 -39 -78 -72 -79 -78
-113 -150 -107 -227 2 -21 32 -25 32 -5 0 23 95 150 146 196 80 71 123 86 239
86 79 0 115 -5 170 -24 100 -34 286 -109 312 -127 28 -18 43 -18 43 0 0 32
-217 152 -364 201 -70 23 -207 38 -256 28z"/>
<path d="M5770 8211 c-60 -38 -97 -78 -84 -91 7 -7 25 3 55 30 24 23 56 48 72
56 28 15 36 34 15 34 -7 0 -33 -13 -58 -29z"/>
<path d="M4000 8195 c-102 -23 -220 -73 -220 -94 0 -18 15 -19 49 -2 77 39
301 63 386 41 23 -6 13 -8 -41 -9 -88 -1 -146 -29 -188 -89 -26 -37 -30 -52
-34 -131 -6 -117 14 -178 77 -241 55 -55 114 -75 199 -67 133 12 222 103 222
227 0 48 -27 152 -45 169 -12 13 -16 11 -24 -11 -5 -14 -20 -33 -33 -42 -67
-47 -115 24 -68 102 26 42 25 48 -7 67 l-28 16 30 -6 c48 -9 187 -83 229 -121
50 -47 113 -138 121 -175 10 -43 29 -36 22 9 -21 152 -128 289 -267 344 -72
28 -281 35 -380 13z m223 -140 c10 -5 13 -18 9 -53 -3 -37 0 -53 16 -72 17
-21 28 -25 70 -23 l50 2 6 -37 c17 -109 -68 -202 -171 -188 -60 8 -118 44
-143 87 -55 100 -24 237 64 275 33 14 75 18 99 9z"/>
<path d="M4155 7917 c-17 -27 -12 -68 10 -87 23 -19 59 -7 73 23 30 62 -46
120 -83 64z"/>
<path d="M6030 8161 c-131 -40 -204 -140 -204 -278 1 -124 66 -221 173 -258
51 -17 169 -20 224 -4 87 24 157 130 157 238 0 53 -25 146 -41 157 -6 3 -26
-8 -44 -26 -29 -28 -37 -31 -62 -23 -43 15 -53 54 -25 106 12 23 22 47 22 54
0 28 -141 52 -200 34z m130 -125 c0 -64 28 -96 87 -96 l45 0 -4 -73 c-4 -81
-28 -131 -79 -161 -34 -20 -137 -21 -182 -2 -46 19 -94 77 -111 136 -39 132
48 236 202 239 l42 1 0 -44z"/>
<path d="M6068 7966 c-13 -9 -18 -27 -18 -59 0 -52 18 -77 56 -77 30 0 48 39
40 88 -9 58 -40 77 -78 48z"/>
<path d="M3706 7932 c-10 -17 16 -110 50 -171 45 -82 122 -191 135 -191 17 0
9 19 -45 103 -72 111 -104 177 -112 226 -6 38 -17 51 -28 33z"/>
<path d="M6557 7913 c-4 -3 -7 -15 -7 -25 0 -24 -44 -110 -64 -127 -17 -14
-22 -51 -7 -51 16 0 71 76 86 120 22 64 18 109 -8 83z"/>
<path d="M6586 7826 c-9 -23 -32 -69 -52 -101 -40 -68 -39 -109 2 -54 59 79
105 199 75 199 -4 0 -16 -20 -25 -44z"/>
<path d="M3670 7797 c0 -64 137 -254 164 -227 7 7 -5 26 -36 58 -40 40 -78
106 -101 175 -9 25 -27 21 -27 -6z"/>
<path d="M5810 7616 c0 -22 73 -53 153 -66 69 -11 238 -13 286 -4 67 14 24 22
-131 26 -160 4 -193 10 -290 53 -13 5 -18 3 -18 -9z"/>
<path d="M4459 7570 c-65 -38 -291 -52 -378 -23 -54 17 -79 11 -47 -12 34 -25
127 -38 231 -32 112 6 235 39 235 62 0 17 -17 19 -41 5z"/>
<path d="M5040 6966 c0 -17 5 -26 16 -26 10 0 14 7 12 22 -5 32 -28 35 -28 4z"/>
<path d="M5230 6970 c-11 -21 -5 -44 9 -35 13 7 20 44 11 50 -5 3 -14 -4 -20
-15z"/>
<path d="M6010 6519 c-86 -20 -319 -29 -511 -19 -276 14 -359 13 -359 -4 0
-31 773 -34 899 -4 59 14 82 39 34 37 -15 -1 -44 -5 -63 -10z"/>
<path d="M4830 6493 c-331 -56 -405 -60 -557 -27 -25 5 -33 3 -33 -8 0 -41
253 -51 445 -18 65 11 149 23 187 27 43 4 67 10 65 17 -4 11 -64 17 -107 9z"/>
<path d="M4500 5422 c0 -122 71 -624 90 -630 15 -5 9 91 -15 227 -8 44 -22
159 -31 256 -13 130 -21 175 -31 175 -8 0 -13 -11 -13 -28z"/>
<path d="M5973 5333 c-8 -21 -32 -75 -54 -120 -74 -160 -147 -389 -129 -407
11 -11 14 -4 70 169 23 72 64 177 92 235 27 58 52 117 55 133 8 41 -15 34 -34
-10z"/>
<path d="M5280 1961 c-107 -33 -326 -198 -531 -401 -93 -91 -109 -112 -109
-139 0 -61 112 -254 241 -416 35 -44 91 -122 126 -174 75 -112 115 -159 147
-167 35 -8 103 13 176 56 52 31 330 244 350 269 3 4 35 29 72 55 67 49 86 76
108 153 17 55 9 80 -43 145 -24 29 -84 109 -134 178 -82 115 -217 297 -280
378 -22 30 -80 73 -93 71 -3 0 -16 -4 -30 -8z m89 -68 c40 -50 254 -339 315
-428 27 -38 61 -83 76 -100 43 -48 80 -108 79 -130 0 -23 -31 -49 -114 -95
-33 -18 -82 -49 -110 -68 -27 -20 -63 -45 -80 -56 -75 -52 -223 -187 -274
-251 -69 -84 -92 -92 -140 -43 -18 18 -52 65 -75 104 -24 38 -81 120 -128 180
-141 183 -248 360 -248 411 0 48 301 323 485 442 135 87 167 92 214 34z m439
-755 c-8 -13 -46 -47 -84 -76 -38 -30 -84 -67 -102 -84 -27 -24 -36 -27 -48
-18 -25 21 -15 37 49 81 55 38 186 117 196 118 2 1 -3 -9 -11 -21z m-284 -239
c-20 -16 -43 -29 -50 -29 -11 0 -31 38 -22 44 1 1 19 15 38 30 l34 28 18 -22
c18 -22 17 -23 -18 -51z m-84 -39 c9 -17 3 -25 -52 -66 -35 -25 -76 -53 -91
-61 -27 -14 -28 -14 -17 7 13 25 129 140 141 140 5 0 13 -9 19 -20z"/>
<path d="M1506 3082 c-10 -16 47 -342 124 -717 16 -77 59 -295 95 -485 65
-338 117 -565 156 -685 11 -33 42 -141 68 -240 27 -99 70 -229 96 -290 26 -60
65 -155 86 -210 55 -147 120 -292 162 -363 20 -35 37 -70 37 -78 0 -7 7 -14
15 -14 8 0 15 6 15 13 0 8 -33 79 -73 158 -40 80 -90 192 -111 249 -35 98 -77
199 -112 278 -25 54 -53 140 -84 257 -16 60 -45 164 -64 230 -63 211 -94 343
-151 645 -30 162 -66 347 -80 410 -35 168 -90 453 -126 657 -29 171 -40 206
-53 185z"/>
<path d="M8647 3043 c-3 -5 -8 -24 -12 -43 -10 -48 -58 -198 -160 -500 -47
-140 -133 -403 -190 -585 -135 -431 -195 -604 -358 -1045 -74 -201 -137 -372
-139 -380 -19 -58 -21 472 -2 583 5 29 3 37 -9 37 -11 0 -18 -24 -27 -102 -10
-80 -11 -197 -3 -528 10 -415 16 -480 44 -480 7 0 9 10 4 28 -3 15 -9 100 -12
190 l-5 163 31 82 c216 572 365 995 476 1355 42 136 135 420 205 632 133 396
180 548 180 581 0 19 -15 26 -23 12z"/>
<path d="M4499 2298 c-15 -77 2 -242 32 -300 27 -55 81 -121 120 -149 25 -18
35 -20 54 -11 50 23 42 135 -20 267 -39 83 -69 124 -120 165 -31 25 -63 38
-66 28z m158 -200 c18 -36 38 -98 45 -137 11 -63 10 -73 -4 -87 -15 -15 -20
-13 -61 28 -24 25 -57 66 -72 93 -26 43 -29 59 -32 159 l-4 111 48 -51 c26
-28 63 -80 80 -116z"/>
<path d="M2535 2133 c-4 -70 -11 -351 -16 -623 -5 -272 -13 -531 -18 -575 -5
-44 -17 -165 -26 -270 -19 -227 -48 -463 -69 -563 -19 -89 -20 -102 -3 -102
23 0 71 301 97 605 6 72 18 195 26 275 8 82 19 379 26 680 15 702 15 693 2
697 -8 3 -14 -38 -19 -124z"/>
</g>
</svg>
