<svg width="634" height="839" viewBox="0 0 634 839" fill="none" xmlns="http://www.w3.org/2000/svg">
<g id="design-freepik">
<path d="M566.5 73C566.5 111.873 534.105 143.5 494 143.5C453.895 143.5 421.5 111.873 421.5 73C421.5 34.1272 453.895 2.5 494 2.5C534.105 2.5 566.5 34.1272 566.5 73Z" fill="white" stroke="black" stroke-width="5"/>
<path d="M607.112 443.723C605.199 446.417 601.004 448.042 593.861 447.73C586.849 447.425 577.718 445.266 567.04 441.361C545.719 433.565 518.777 419.012 491.324 399.517C463.872 380.021 441.255 359.378 426.868 341.817C419.663 333.022 414.617 325.113 412.018 318.593C409.37 311.951 409.522 307.455 411.435 304.761C413.349 302.066 417.544 300.442 424.687 300.753C431.699 301.059 440.829 303.218 451.507 307.122C472.828 314.919 499.771 329.471 527.223 348.967C554.675 368.462 577.293 389.105 591.679 406.667C598.884 415.462 603.931 423.371 606.53 429.89C609.177 436.532 609.026 441.028 607.112 443.723Z" fill="white" stroke="black" stroke-width="5"/>
<path d="M226.5 73C226.5 111.873 194.105 143.5 154 143.5C113.895 143.5 81.5 111.873 81.5 73C81.5 34.1272 113.895 2.5 154 2.5C194.105 2.5 226.5 34.1272 226.5 73Z" fill="white" stroke="black" stroke-width="5"/>
<path d="M212.5 78C212.5 110.558 188.758 136.5 160 136.5C131.242 136.5 107.5 110.558 107.5 78C107.5 45.4415 131.242 19.5 160 19.5C188.758 19.5 212.5 45.4415 212.5 78Z" fill="white" stroke="black" stroke-width="5"/>
<path d="M546.5 78C546.5 110.558 522.758 136.5 494 136.5C465.242 136.5 441.5 110.558 441.5 78C441.5 45.4415 465.242 19.5 494 19.5C522.758 19.5 546.5 45.4415 546.5 78Z" fill="white" stroke="black" stroke-width="5"/>
<path d="M604.418 799.436C601.291 803.838 595.779 806.596 587.94 807.46C580.104 808.324 570.241 807.249 558.958 804.279C536.411 798.342 508.724 784.975 481.324 765.517C453.925 746.059 432.182 724.323 419.147 704.991C412.624 695.317 408.36 686.359 406.594 678.676C404.827 670.99 405.614 664.876 408.74 660.474C411.867 656.072 417.379 653.314 425.218 652.45C433.054 651.586 442.917 652.66 454.2 655.631C476.747 661.568 504.434 674.935 531.834 694.393C559.233 713.851 580.977 735.587 594.011 754.919C600.534 764.593 604.798 773.551 606.564 781.234C608.332 788.92 607.544 795.033 604.418 799.436Z" fill="white" stroke="black" stroke-width="5"/>
<path d="M255.037 657.326C258.42 662.09 259.38 668.546 257.798 676.487C256.214 684.434 252.12 693.627 245.746 703.495C233.008 723.219 211.457 745.197 184.069 764.646C156.681 784.095 128.83 797.201 106.009 802.728C94.592 805.493 84.5633 806.329 76.5382 805.206C68.5201 804.083 62.7406 801.049 59.3578 796.285C55.9749 791.522 55.0146 785.065 56.5969 777.125C58.1806 769.178 62.2752 759.985 68.6483 750.116C81.3863 730.392 102.937 708.414 130.325 688.965C157.713 669.516 185.565 656.411 208.385 650.884C219.803 648.119 229.832 647.282 237.857 648.406C245.875 649.528 251.654 652.563 255.037 657.326Z" fill="white" stroke="black" stroke-width="5"/>
<path d="M217.114 314.761C219.027 317.455 219.179 321.951 216.531 328.593C213.932 335.113 208.885 343.022 201.68 351.817C187.293 369.378 164.676 390.021 137.223 409.516C109.771 429.011 82.828 443.563 61.5067 451.359C50.8287 455.264 41.6982 457.422 34.6864 457.728C27.5432 458.039 23.3481 456.414 21.4347 453.72C19.5213 451.026 19.3699 446.529 22.0176 439.888C24.6167 433.368 29.6634 425.459 36.8685 416.664C51.2553 399.103 73.8729 378.46 101.325 358.965C128.778 339.47 155.721 324.918 177.042 317.122C187.72 313.217 196.85 311.059 203.862 310.753C211.005 310.442 215.2 312.066 217.114 314.761Z" fill="white" stroke="black" stroke-width="5"/>
<path d="M506.5 492C506.5 560.009 486.322 621.479 453.822 665.886C421.321 710.295 376.63 737.5 327.5 737.5C278.37 737.5 233.679 710.295 201.178 665.886C168.678 621.479 148.5 560.009 148.5 492C148.5 423.991 168.678 362.521 201.178 318.114C233.679 273.705 278.37 246.5 327.5 246.5C376.63 246.5 421.321 273.705 453.822 318.114C486.322 362.521 506.5 423.991 506.5 492Z" fill="white" stroke="black" stroke-width="5"/>
<path d="M461 482.5C461 532.245 446.389 577.198 422.865 609.666C399.34 642.137 367.012 662 331.5 662C295.988 662 263.66 642.137 240.135 609.666C216.611 577.198 202 532.245 202 482.5C202 432.755 216.611 387.802 240.135 355.334C263.66 322.863 295.988 303 331.5 303C367.012 303 399.34 322.863 422.865 355.334C446.389 387.802 461 432.755 461 482.5Z" fill="white" stroke="black" stroke-width="4"/>
<path d="M513.5 178C513.5 274.836 431.884 353.5 331 353.5C230.116 353.5 148.5 274.836 148.5 178C148.5 81.164 230.116 2.5 331 2.5C431.884 2.5 513.5 81.164 513.5 178Z" fill="white" stroke="black" stroke-width="5"/>
<path d="M264 172C264 189.21 250.706 203 234.5 203C218.294 203 205 189.21 205 172C205 154.79 218.294 141 234.5 141C250.706 141 264 154.79 264 172Z" fill="white" stroke="black" stroke-width="4"/>
<path d="M451 172C451 189.21 437.706 203 421.5 203C405.294 203 392 189.21 392 172C392 154.79 405.294 141 421.5 141C437.706 141 451 154.79 451 172Z" fill="white" stroke="black" stroke-width="4"/>
<line x1="317" y1="214.5" x2="347" y2="214.5" stroke="black" stroke-width="5"/>
<line x1="318.007" y1="212.509" x2="332.914" y2="232.578" stroke="black" stroke-width="5"/>
<line x1="348.371" y1="215.453" x2="329.907" y2="232.308" stroke="black" stroke-width="5"/>
<rect x="408.5" y="154.5" width="20" height="21" rx="10" fill="white" stroke="black" stroke-width="5"/>
<rect x="231.5" y="154.5" width="20" height="21" rx="10" fill="white" stroke="black" stroke-width="5"/>
</g>
</svg>
